<svg width="279" height="201" viewBox="0 0 279 201" fill="none" xmlns="http://www.w3.org/2000/svg">
<path d="M267.783 4.5871C265.968 5.63495 264.347 6.86039 262.953 8.21422L263.671 8.95756C265.004 7.65471 266.563 6.48023 268.298 5.47851C268.298 5.47851 268.298 5.47851 268.309 5.47192L268.526 5.3467L268.023 4.44871L267.783 4.5871ZM273.792 1.97152L274.099 2.9521C276.018 2.34731 278.029 1.90249 280.052 1.6638L279.931 0.636656C277.844 0.89686 275.774 1.34519 273.792 1.97152ZM259.154 13.2871C258.186 15.1416 257.511 17.1618 257.173 19.292L258.199 19.4614C258.526 17.4442 259.166 15.5206 260.081 13.758L259.154 13.2871ZM286.211 0.469593L286.138 1.50241C287.983 1.64079 290.025 1.90929 292.229 2.29825L292.403 1.28303C290.171 0.89583 288.081 0.624238 286.211 0.469593ZM56.5683 135.629L57.083 136.521C58.8588 135.511 60.6821 134.504 62.4976 133.562L62.0172 132.651C60.1789 133.606 58.349 134.601 56.5683 135.629ZM51.2334 138.831C49.4809 139.934 47.7253 141.085 46.0352 142.244L46.6184 143.096C48.2971 141.944 50.0298 140.806 51.7709 139.709L51.2334 138.831ZM67.58 129.896L68.0147 130.834C69.8698 129.961 71.7675 129.109 73.6507 128.311L73.2501 127.354C71.3555 128.158 69.4465 129.017 67.58 129.896ZM41.0033 145.865C39.348 147.11 37.7077 148.408 36.1148 149.708L36.7712 150.503C38.3413 149.215 39.9702 147.924 41.6141 146.686L41.0033 145.865ZM79.0523 125.04L79.4005 126.013C81.3119 125.29 83.2726 124.6 85.2055 123.941L84.8687 122.962C82.9243 123.628 80.9703 124.329 79.0523 125.04ZM31.417 153.777C29.8769 155.169 28.3632 156.607 26.9035 158.059L27.6333 158.796C29.0701 157.357 30.579 155.937 32.1077 154.551L31.417 153.777ZM90.8038 121.09L91.0998 122.077C93.061 121.493 95.0467 120.926 97.0409 120.399L96.7791 119.392C94.7736 119.926 92.7584 120.495 90.8038 121.09ZM257.029 25.6072C257.225 27.5815 257.658 29.6481 258.281 31.7565L259.268 31.4614C258.659 29.4053 258.248 27.4024 258.056 25.487L257.029 25.6072ZM298.506 2.57465L298.266 3.58195C300.136 4.02622 302.147 4.55664 304.245 5.15875L304.521 4.16114C302.412 3.56564 300.383 3.03035 298.506 2.57465ZM22.6151 162.546C21.2082 164.09 19.8457 165.684 18.5649 167.262L19.3662 167.911C20.6422 166.352 21.9998 164.776 23.3839 163.245L22.6151 162.546ZM102.796 117.899L103.029 118.908C105.015 118.447 107.044 118.007 109.063 117.603L108.86 116.593C106.829 117.003 104.801 117.443 102.796 117.899ZM14.7758 172.192C13.5544 173.873 12.3774 175.604 11.2772 177.336L12.1434 177.887C13.2387 176.173 14.3995 174.467 15.6095 172.793L14.7758 172.192ZM114.964 115.461L115.138 116.473C117.172 116.121 119.197 115.806 121.234 115.513L121.084 114.488C119.052 114.792 117.016 115.114 114.964 115.461ZM310.464 5.94102L310.152 6.92893C312.121 7.54464 314.085 8.17835 316.039 8.84812L316.369 7.86501C314.415 7.19524 312.433 6.55671 310.464 5.94102ZM127.261 113.694L127.383 114.721C129.435 114.481 131.472 114.265 133.528 114.084L133.436 113.055C131.369 113.243 129.314 113.454 127.261 113.694ZM8.09856 182.691C7.09863 184.518 6.13652 186.384 5.2741 188.238L6.21004 188.673C7.06765 186.837 8.01353 184.995 9.00864 183.186L8.09856 182.691ZM260.327 37.6458C261.031 39.5248 261.775 41.4724 262.551 43.4477L263.509 43.0774C262.745 41.0955 261.996 39.1659 261.292 37.2869L260.327 37.6458ZM139.614 112.551L139.688 113.575C141.746 113.423 143.801 113.318 145.856 113.214L145.805 112.176C143.739 112.288 141.672 112.399 139.614 112.551ZM2.82666 193.963C2.08248 195.917 1.41034 197.889 0.815086 199.863L1.80757 200.159C2.3932 198.221 3.07193 196.26 3.80647 194.342L2.82666 193.963ZM322.25 9.87912L321.913 10.8508C323.899 11.5482 325.855 12.2474 327.75 12.9207L328.099 11.9424C326.185 11.2643 324.236 10.5766 322.25 9.87912ZM152.005 111.949L152.038 112.981C154.102 112.918 156.167 112.883 158.227 112.867L158.212 111.84C156.145 111.844 154.069 111.885 152.005 111.949ZM264.767 49.2381C265.498 51.1629 266.206 53.1008 266.891 55.0519L267.869 54.7158C267.195 52.7582 266.474 50.7974 265.744 48.8727L264.767 49.2381ZM164.414 111.825L164.399 112.854C166.461 112.867 168.525 112.91 170.589 112.953L170.615 111.917C168.551 111.874 166.482 111.85 164.414 111.825ZM333.937 14.0418L333.589 15.0201C335.66 15.7597 337.616 16.4589 339.437 17.0834L339.774 16.1117C337.958 15.4692 335.99 14.7766 333.937 14.0418ZM176.817 112.115L176.773 113.146C178.839 113.218 180.895 113.326 182.952 113.434L183.007 112.397C180.957 112.3 178.89 112.198 176.817 112.115ZM268.776 60.9271C269.402 63.0649 269.915 65.0085 270.319 66.8936L271.333 66.6736C270.917 64.7657 270.401 62.7926 269.763 60.6319L268.776 60.9271ZM345.647 18.0849L345.317 19.068L351.2 21.0347L351.531 20.0516L345.647 18.0849ZM189.208 112.778L189.135 113.811L189.657 113.845C191.164 113.95 192.682 114.049 194.188 114.154L195.315 114.235L195.389 113.202L194.262 113.121C192.744 113.023 191.23 112.906 189.73 112.812L189.208 112.778ZM357.408 22.0068L357.078 22.9899L362.962 24.9565L363.292 23.9734L357.408 22.0068ZM271.317 72.9458C271.469 74.4735 271.54 75.941 271.517 77.3254C271.51 77.8933 271.474 78.4629 271.426 79.0391L272.453 79.1315C272.506 78.5374 272.529 77.9449 272.552 77.3525C272.567 75.9272 272.499 74.4122 272.345 72.855L271.317 72.9458ZM201.556 113.603L201.494 114.629C203.557 114.749 205.62 114.869 207.685 114.941L207.729 113.91C205.682 113.842 203.625 113.734 201.556 113.603ZM213.917 114.055L213.92 115.089C216.1 115.096 218.147 115.057 220.139 114.973L220.088 113.936C218.103 114.031 216.085 114.068 213.917 114.055ZM369.158 25.9352L368.828 26.9183L374.712 28.8849L375.042 27.9019L369.158 25.9352ZM270.154 84.9545C269.522 86.8126 268.653 88.6552 267.581 90.4627L268.463 90.9894C269.568 89.1327 270.467 87.2114 271.125 85.2927L270.154 84.9545ZM226.221 113.488L226.331 114.522C228.438 114.296 230.517 113.995 232.503 113.64L232.312 112.623C230.355 112.976 228.31 113.257 226.221 113.488ZM264.035 95.42C262.762 96.9321 261.316 98.4072 259.758 99.7944L260.449 100.569C262.046 99.1439 263.52 97.6376 264.827 96.1058L264.035 95.42ZM238.313 111.261L238.587 112.261C239.034 112.14 239.464 112.014 239.911 111.893C241.449 111.447 242.994 110.906 244.516 110.301L244.134 109.348C242.645 109.933 241.124 110.461 239.615 110.906C239.179 111.02 238.749 111.146 238.313 111.261ZM380.908 29.8637L380.577 30.8468L386.461 32.8134L386.792 31.8303L380.908 29.8637ZM254.936 103.569C253.269 104.714 251.503 105.795 249.701 106.759L250.181 107.67C252.018 106.686 253.824 105.597 255.519 104.421L254.936 103.569ZM392.669 33.7855L392.339 34.7686L398.223 36.7352L398.553 35.7521L392.669 33.7855ZM404.419 37.7139L404.089 38.697L409.972 40.6637L410.303 39.6806L404.419 37.7139ZM416.169 41.6424L415.838 42.6255L421.722 44.5921L422.053 43.609L416.169 41.6424ZM427.919 45.5708L427.588 46.5539L433.472 48.5205L433.802 47.5374L427.919 45.5708ZM439.68 49.4927L439.349 50.4757L445.233 52.4424L445.564 51.4593L439.68 49.4927ZM451.43 53.4211L451.099 54.4042L456.983 56.3708L457.314 55.3877L451.43 53.4211ZM463.191 57.3429L462.86 58.326L468.744 60.2927L469.075 59.3096L463.191 57.3429ZM474.941 61.2714L474.61 62.2545L480.494 64.2211L480.825 63.238L474.941 61.2714Z" fill="white"/>
</svg>
