<svg width="24" height="24" viewBox="0 0 24 24" fill="none" xmlns="http://www.w3.org/2000/svg">
<rect width="24" height="24" rx="12" fill="url(#paint0_linear_1273_10966)"/>
<path fill-rule="evenodd" clip-rule="evenodd" d="M6 7.71429C6 7.25963 6.18061 6.82359 6.5021 6.5021C6.82359 6.18061 7.25963 6 7.71429 6H8.49829C8.98971 6 9.41829 6.33486 9.53771 6.81143L10.1691 9.33886C10.2203 9.54343 10.21 9.75855 10.1394 9.95727C10.0689 10.156 9.94127 10.3295 9.77257 10.456L9.03371 11.0103C8.95657 11.068 8.94 11.1526 8.96171 11.2114C9.28422 12.0885 9.79348 12.885 10.4543 13.5457C11.115 14.2065 11.9115 14.7158 12.7886 15.0383C12.8474 15.06 12.9314 15.0434 12.9897 14.9663L13.544 14.2274C13.6705 14.0587 13.844 13.9311 14.0427 13.8606C14.2415 13.79 14.4566 13.7797 14.6611 13.8309L17.1886 14.4623C17.6651 14.5817 18 15.0103 18 15.5023V16.2857C18 16.7404 17.8194 17.1764 17.4979 17.4979C17.1764 17.8194 16.7404 18 16.2857 18H15C10.0297 18 6 13.9703 6 9V7.71429Z" fill="white"/>
<defs>
<linearGradient id="paint0_linear_1273_10966" x1="0.48" y1="24.2054" x2="14.4422" y2="9.41184" gradientUnits="userSpaceOnUse">
<stop stop-color="#A26AFF"/>
<stop offset="0.99" stop-color="#B48CF9"/>
</linearGradient>
</defs>
</svg>
