<svg width="25" height="24" viewBox="0 0 25 24" fill="none" xmlns="http://www.w3.org/2000/svg">
<path d="M3 6.75C3 15.034 9.716 21.75 18 21.75H20.25C20.8467 21.75 21.419 21.5129 21.841 21.091C22.2629 20.669 22.5 20.0967 22.5 19.5V18.128C22.5 17.612 22.149 17.162 21.648 17.037L17.225 15.931C16.785 15.821 16.323 15.986 16.052 16.348L15.082 17.641C14.8 18.017 14.313 18.183 13.872 18.021C12.2349 17.4191 10.7482 16.4686 9.51478 15.2352C8.28141 14.0018 7.33087 12.5151 6.729 10.878C6.567 10.437 6.733 9.95 7.109 9.668L8.402 8.698C8.765 8.427 8.929 7.964 8.819 7.525L7.713 3.102C7.65214 2.85869 7.51172 2.6427 7.31405 2.48834C7.11638 2.33397 6.8728 2.25008 6.622 2.25H5.25C4.65326 2.25 4.08097 2.48705 3.65901 2.90901C3.23705 3.33097 3 3.90326 3 4.5V6.75Z" stroke="white" stroke-width="1.5" stroke-linecap="round" stroke-linejoin="round"/>
</svg>
