<svg width="373" height="375" viewBox="0 0 373 375" fill="none" xmlns="http://www.w3.org/2000/svg">
<path d="M109.266 97.6814C101.569 97.4604 68.6222 144.019 41.189 185.853C33.5247 241.247 72.5002 262.991 99.2389 257.167C124.096 221.97 145.708 165.049 147.974 158.428C158.181 128.606 122.958 98.0743 109.266 97.6814Z" fill="#D14E65"/>
<path d="M41.1896 185.854C19.7083 218.612 1.60774 248.474 1.65843 250.711C2.20237 274.686 24.3685 311.699 66.0019 281.915C75.2484 275.3 86.0359 262.383 96.6946 247.291C94.3019 241.921 90.9121 235.297 86.0911 227.315C74.3227 207.829 52.0222 192.517 41.1896 185.854Z" fill="#FB99A4"/>
<path d="M17.7272 103.408C17.7272 103.408 15.1697 69.6987 23.5204 65.1429C31.8711 60.5871 41.115 62.5033 47.148 65.0511C53.181 67.5995 49.0652 93.4373 48.8153 99.2665C48.5654 105.096 24.7801 109.236 17.7272 103.408Z" fill="#FB99A4"/>
<path d="M17.4347 97.3375C17.4347 97.3375 42.9745 92.7802 47.6803 94.6629C49.153 95.252 55.6397 113.125 62.4133 151.008C63.8956 159.298 72.6442 218.277 71.3789 251.049C70.6353 270.309 49.6386 287.497 31.428 288.964C22.539 289.681 5.12839 270.73 2.11315 256.179C-7.22963 211.092 17.4347 97.3375 17.4347 97.3375Z" fill="#FB99A4"/>
<path d="M63.0946 275.276C63.0571 275.265 63.0196 275.254 62.9821 275.241C62.1826 274.961 61.7609 274.086 62.0407 273.286C71.5067 246.224 68.3201 199.189 68.2871 198.717C68.2273 197.871 68.8645 197.138 69.7096 197.078C70.5551 197.018 71.2882 197.655 71.348 198.501C71.4859 200.453 74.6142 246.636 64.9368 274.3C64.6702 275.062 63.8621 275.48 63.0946 275.276Z" fill="#C6677E"/>
<path d="M277.203 312.198C265.996 287.446 180.786 255.333 158.308 250.044C156.664 274.968 138.911 292.619 125.309 319.504C115.36 339.167 106.582 449.798 102.594 567.599C102.177 579.905 110.895 601.678 110.349 614.264C106.849 694.86 107.77 807.928 107.77 807.928C107.77 807.928 108.138 813.1 129.817 813.1C150.653 813.1 171.322 807.591 171.322 807.591C171.322 807.591 183.019 665.694 187.048 603.371C187.43 597.448 184.194 571.315 184.205 567.599C184.332 527.579 202.457 371.1 202.457 371.1L300.551 812.478C300.551 812.478 311.74 819.216 328.523 814.641C341.331 811.151 359.571 809.39 360.615 800.705C361.697 791.717 358.31 761.194 352.342 719.459C350.562 707.013 347.079 706.432 344.89 692.267C344.336 688.681 345.243 672.187 344.666 668.513C338.084 626.561 330.106 579.146 321.939 532.88C318.837 515.304 322.354 511.7 319.262 494.82C303.584 409.2 282.257 323.361 277.203 312.198Z" fill="#84C0CE"/>
<path d="M203.668 371.844C203.161 371.845 202.674 371.566 202.457 371.102C196.848 359.103 190.686 361.625 184.386 356.703C183.836 356.274 183.739 355.48 184.168 354.93C184.598 354.381 185.392 354.284 185.94 354.713C192.682 359.98 199.038 357.771 204.834 370.158C205.123 370.776 204.825 371.487 204.168 371.747C204.006 371.812 203.836 371.843 203.668 371.844Z" fill="#669EB2"/>
<path d="M197.532 343.286C217.71 345.763 261.651 345.887 286.74 344.981C282.314 327.715 278.871 315.888 277.203 312.203C276.902 311.538 276.537 310.868 276.133 310.193C236.466 313.81 142.516 323.486 126.241 335.302C126.241 335.302 168.41 339.711 197.532 343.286Z" fill="#669EB2"/>
<path d="M272.666 97.8338C258.307 78.5653 201.779 75.0056 182.297 75.4918C171.507 75.7614 117.737 84.5238 102.011 101.635C91.293 113.297 93.0455 141.478 97.3513 176.797C109.509 276.521 98.5163 322.527 121.747 334.247C152.773 343.643 280.8 327.111 286.461 322.527C297.799 319.361 293.878 278.87 288.799 238.594C282.164 185.974 296.062 129.227 272.666 97.8338Z" fill="#ED667E"/>
<path d="M59.825 45.4264L68.0028 43.9375L79.4514 41.853L85.6861 40.718C87.9836 40.2998 90.0539 41.8378 90.3104 44.153L90.5253 46.092L93.1233 45.619C93.4828 45.5536 93.7413 45.2069 93.7013 44.8449C93.6612 44.483 93.9197 44.1362 94.2792 44.0708L101.216 42.6793C101.575 42.6139 101.899 42.8542 101.939 43.2167L104.092 57.2202C104.132 57.5821 103.874 57.9289 103.514 57.9943L95.9865 59.4755C95.6271 59.5409 95.3032 59.3006 95.2631 58.9382C95.2231 58.5762 94.8991 58.3354 94.5397 58.4008L91.9417 58.8738L93.0574 68.9415C93.2764 70.9185 91.8636 72.8109 89.9018 73.1683L63.3025 79.1704C61.2434 79.545 59.1776 79.0801 57.559 77.8782C56.9121 77.3976 55.9444 72.1027 55.4973 71.4442L38.0725 80.6653C35.7634 81.8875 33.3037 82.7432 30.7838 83.202L15.2498 86.0302C13.9703 86.2629 12.8176 85.4067 12.6751 84.1175L9.57676 56.1577C9.4338 54.8685 10.3549 53.6346 11.6344 53.4015L27.396 50.5322C29.7664 50.1008 32.1637 50.0258 34.5082 50.3102L52.625 52.5057L52.3913 51.03C52.1495 48.7225 53.8016 46.5224 56.0894 46.1062L56.5547 46.0215L59.825 45.4264Z" fill="#393351"/>
<path d="M13.9664 84.7132C19.1134 84.142 22.5575 77.1147 21.659 69.0173C20.7604 60.9198 15.8595 54.8185 10.7125 55.3897C5.56543 55.9608 2.12136 62.9881 3.0199 71.0856C3.91845 79.183 8.81936 85.2843 13.9664 84.7132Z" fill="#5CBEC6"/>
<path d="M21.6817 69.0098C22.5789 77.107 19.1338 84.1341 13.9864 84.7044C8.83902 85.2747 3.93901 79.1728 3.04174 71.0755C2.14447 62.9783 5.58958 55.9512 10.737 55.3809C15.8844 54.8106 20.7844 60.9126 21.6817 69.0098ZM23.2729 68.8334C22.806 64.6187 21.3065 60.7508 19.0512 57.9424C17.905 56.5154 16.6184 55.4275 15.2269 54.7087C13.7076 53.924 12.1376 53.6147 10.5606 53.7896C8.98298 53.9645 7.51896 54.6098 6.20854 55.7079C5.00812 56.7136 3.99072 58.057 3.1852 59.7005C1.59951 62.9342 0.983591 67.0368 1.45048 71.2515C1.91736 75.4661 3.41687 79.334 5.67221 82.1424C6.81839 83.5694 8.10497 84.6573 9.4965 85.3761C11.0158 86.1608 12.5858 86.4701 14.1628 86.2952C15.7399 86.1203 17.2044 85.475 18.5148 84.3769C19.7153 83.3712 20.7327 82.0278 21.5382 80.3844C23.1239 77.1506 23.7398 73.0485 23.2729 68.8334Z" fill="#4C87C2"/>
<path d="M11.9735 57.4533C12.672 56.9753 13.6757 57.062 14.2146 57.6465C20.5183 64.4835 20.1472 69.6962 20.128 69.9147C20.0631 70.6696 19.2966 71.253 18.4166 71.218C18.3578 71.2155 18.3005 71.2104 18.2442 71.2033C17.4519 71.0974 16.88 70.4926 16.9414 69.788C16.9454 69.7449 17.1604 65.3158 11.6855 59.3781C11.1466 58.7931 11.2754 57.9313 11.9735 57.4533Z" fill="white"/>
<path d="M87.5937 43.297L95.7715 41.8081L107.22 39.7241L113.455 38.5891C115.752 38.1709 117.823 39.7089 118.079 42.0241L118.294 43.9631L120.892 43.4901C121.251 43.4247 121.51 43.078 121.47 42.716C121.43 42.3541 121.688 42.0073 122.048 41.9419L129.857 40.7273C130.217 40.6619 130.54 40.9027 130.581 41.2646L132.733 55.2682C132.773 55.6301 132.515 55.9769 132.155 56.0422L123.755 57.3466C123.396 57.412 123.072 57.1717 123.032 56.8092C122.992 56.4473 122.668 56.2065 122.308 56.2719L119.71 56.7449L120.826 66.8126C121.045 68.7896 119.632 70.682 117.67 71.0394L91.0712 77.0414C89.0121 77.4161 86.9463 76.9517 85.3277 75.7493C84.6808 75.2687 83.7126 69.9738 83.266 69.3153L65.8412 78.5364C63.5321 79.7586 61.0724 80.6143 58.5525 81.0731L43.0185 83.9012C41.739 84.1339 40.5863 83.2777 40.4438 81.9886L37.3454 54.0287C37.2025 52.7396 38.1236 51.5057 39.4031 51.2725L55.1646 48.4033C57.5356 47.9719 59.9323 47.8969 62.2769 48.1807L80.3937 50.3763L80.16 48.9006C79.9182 46.5925 81.5703 44.3929 83.8581 43.9768L84.3234 43.8921L87.5937 43.297Z" fill="#393351"/>
<path d="M38.5056 53.247C33.3582 53.8173 29.9131 60.8439 30.8103 68.9416C31.7076 77.0394 36.6076 83.1408 41.755 82.5705C46.9024 82.0002 50.3475 74.9736 49.4502 66.8759C48.553 58.7781 43.653 52.6762 38.5056 53.247Z" fill="#5CBEC6"/>
<path d="M49.4506 66.8787C50.3478 74.9765 46.9027 82.0031 41.7553 82.5734C36.6079 83.1437 31.7079 77.0417 30.8106 68.9445C29.9134 60.8467 33.3585 53.8201 38.5059 53.2498C43.6533 52.679 48.5533 58.781 49.4506 66.8787ZM51.0418 66.7023C50.5749 62.4877 49.0754 58.6198 46.8206 55.8114C45.6744 54.3843 44.3878 53.2965 42.9963 52.5776C41.477 51.7929 39.907 51.4842 38.33 51.6586C36.7524 51.8335 35.2884 52.4788 33.978 53.5768C32.7775 54.5826 31.7601 55.9259 30.9546 57.5694C29.3689 60.8036 28.753 64.9057 29.2199 69.1204C29.6868 73.3355 31.1863 77.2029 33.4416 80.0113C34.5878 81.4384 35.8744 82.5267 37.2659 83.245C38.7852 84.0298 40.3552 84.339 41.9322 84.1641C43.5098 83.9892 44.9738 83.3439 46.2843 82.2459C47.4847 81.2401 48.5021 79.8968 49.3076 78.2533C50.8928 75.0196 51.5092 70.9169 51.0418 66.7023Z" fill="#4C87C2"/>
<path d="M39.7426 55.3166C40.4412 54.8385 41.4449 54.9252 41.9838 55.5097C48.2875 62.3467 47.9164 67.5595 47.8972 67.778C47.8323 68.5328 47.0658 69.1163 46.1858 69.0813C46.1275 69.0788 46.0697 69.0742 46.0134 69.0666C45.2211 68.9612 44.6493 68.3559 44.7106 67.6513C44.7146 67.6082 44.9296 63.1791 39.4552 57.2414C38.9153 56.6569 39.0441 55.7951 39.7426 55.3166Z" fill="white"/>
<path d="M155.437 5.95446C155.437 5.95446 165.186 -0.937781 171.635 0.108022C178.084 1.15382 179.347 2.88449 179.347 2.88449C179.347 2.88449 186.8 1.93906 191.423 8.58495C196.046 15.2303 198.835 54.9034 182.65 55.6749C169.059 56.3228 132.463 21.0311 155.437 5.95446Z" fill="#393351"/>
<path d="M179.744 94.4289C178.263 93.8459 175.53 91.1231 173.512 88.9575C173.54 88.5053 173.576 88.0749 173.622 87.6795L169.99 45.1469L185.124 42.084L203.375 79.4698C200.765 81.8361 192.493 89.2551 188.642 91.7867C184.035 94.8156 182.277 95.4265 179.744 94.4289Z" fill="#FB99A4"/>
<path d="M172.739 77.3436C174.331 76.2395 179.486 73.4934 181.318 71.0901C188.167 62.1067 183.781 52.7832 183.781 52.7832L171.429 62.0018L172.739 77.3436Z" fill="#C6677E"/>
<path d="M174.811 28.293L178.029 39.3178L183.918 43.9501C191.436 61.4505 168.25 71.4776 162.334 72.3511C155.255 73.3958 151.641 73.6812 149.184 64.7009C145.997 53.0506 146.372 41.4149 146.922 35.2005C147.327 30.6234 147.539 25.5647 151.062 22.5804C158.445 16.3269 170.757 18.2 174.811 28.293Z" fill="#FB99A4"/>
<path d="M162.47 29.1792C163.976 29.2816 165.488 29.2973 166.989 29.4636C168.569 29.6384 168.329 32.093 166.75 31.9181C165.249 31.7519 163.737 31.7361 162.231 31.6337C160.643 31.5268 160.888 29.0722 162.47 29.1792Z" fill="#393351"/>
<path d="M146.612 47.6399C146.612 47.6399 145.447 56.4636 145.954 60.1166C146.461 63.769 146.3 75.9856 159.39 75.7479C172.48 75.5101 177.595 68.9666 181.656 62.7435C185.717 56.5209 180.95 39.0414 180.709 38.1512C180.467 37.2615 177.749 38.3514 177.749 38.3514C177.749 38.3514 177.464 47.1305 176.131 47.8392C174.476 48.7182 172.752 47.6917 168.695 45.7182C165.051 43.9459 158.283 48.634 156.17 48.9904C154.058 49.3468 152.467 47.7961 150.635 47.7205C148.804 47.645 146.612 47.6399 146.612 47.6399Z" fill="#393351"/>
<path d="M158.227 51.4891C157.038 51.8425 150.181 51.1307 149.488 51.8511C148.389 52.9922 151.108 61.9314 153.314 62.2483C155.52 62.5651 156.907 58.1964 158.128 58.4372C159.35 58.678 161.18 61.86 164.099 60.5683C167.017 59.2766 168.652 52.4072 168.273 50.1346C167.894 47.862 166.759 48.4769 165.396 49.031C164.471 49.4077 160.681 50.7592 158.227 51.4891Z" fill="#FB99A4"/>
<path d="M149.544 31.6214C148.491 32.3464 147.393 32.9973 146.374 33.7764C145.302 34.5956 146.645 36.6513 147.717 35.832C148.736 35.0529 149.834 34.402 150.887 33.6771C151.997 32.9131 150.649 30.8605 149.544 31.6214Z" fill="#393351"/>
<path d="M157.721 47.5609C156.011 47.568 154.439 47.1909 152.918 46.4102C151.765 45.8186 151.066 47.7074 152.206 48.2924C153.855 49.1385 155.664 49.5709 157.517 49.5633C158.801 49.5578 159.015 47.5559 157.721 47.5609Z" fill="#C6677E"/>
<path d="M181.01 34.5558C181.168 31.6318 182.079 27.3233 186.303 29.6907C192.445 33.1338 191.777 47.3502 184.487 48.1476C179.073 48.7397 180.927 36.0943 181.01 34.5558Z" fill="#FB99A4"/>
<path d="M168.718 15.9992C168.718 15.9992 158.686 21.5623 155.414 24.7063C152.141 27.8503 145.813 34.9935 144.642 35.1476C143.47 35.3017 137.305 19.0768 145.542 13.1188C153.778 7.16085 163.887 10.9943 168.718 15.9992Z" fill="#393351"/>
<path d="M151.13 39.7523C151.216 41.0237 150.52 42.106 149.575 42.1699C148.63 42.2338 147.794 41.2554 147.708 39.984C147.622 38.7126 148.318 37.6303 149.263 37.5664C150.208 37.5026 151.044 38.4809 151.13 39.7523Z" fill="#393351"/>
<path d="M165.018 37.5726C165.104 38.844 164.408 39.9263 163.463 39.9902C162.518 40.0541 161.682 39.0757 161.596 37.8043C161.51 36.5329 162.206 35.4506 163.151 35.3867C164.096 35.3229 164.932 36.3018 165.018 37.5726Z" fill="#393351"/>
<path d="M156.636 54.2931C154.472 54.4396 152.834 54.396 152.688 54.3915C152.27 54.3793 151.941 54.03 151.953 53.6123C151.966 53.1946 152.313 52.8697 152.733 52.8778C152.809 52.8798 160.388 53.079 164.499 51.1192C164.878 50.9383 165.328 51.0994 165.508 51.4766C165.688 51.8543 165.528 52.306 165.151 52.4859C162.707 53.6514 159.28 54.1142 156.636 54.2931Z" fill="#C6677E"/>
<path d="M244.385 86.3705C236.864 85.1928 199.086 126.253 166.826 163.939C174.943 176.814 180.641 248.139 222.717 234.315C258.105 197.758 272.296 157.253 275.111 151.52C289.003 123.227 257.918 88.4899 244.385 86.3705Z" fill="#ED667E"/>
<path d="M166.826 163.939C140.905 194.221 118.546 222.323 118.31 224.582C115.822 248.433 133.135 287.948 178.197 263.662C190.241 257.17 205.653 241.908 220.637 224.637C205.686 195.061 174.943 176.814 166.826 163.939Z" fill="#FB99A4"/>
<path d="M136.102 68.732C136.102 68.732 134.129 38.2982 127.591 37.3959C121.053 36.4936 105.943 32.3509 106.192 35.8295C106.441 39.3081 117.921 40.8973 117.921 40.8973C117.921 40.8973 102.091 40.7837 101.088 42.7304C100.084 44.6775 102.363 46.0751 102.363 46.0751C102.363 46.0751 100.382 47.968 100.306 50.1569C100.231 52.3459 112.877 55.7986 112.877 55.7986C112.877 55.7986 111.458 100.501 128.277 97.4593C145.096 94.4177 136.102 68.732 136.102 68.732Z" fill="#FB99A4"/>
<path d="M115.197 82.522C115.197 82.522 130.903 76.0363 135.776 77.4309C137.3 77.8673 153.317 100.991 163.167 129.224C165.941 137.175 189.549 178.812 193.339 223.451C194.97 242.656 168.872 265.549 150.905 268.86C142.135 270.477 125.645 259.52 121.166 245.351C107.287 201.446 115.197 82.522 115.197 82.522Z" fill="#FB99A4"/>
<path d="M194.467 241.319C194.348 241.319 194.226 241.308 194.105 241.284C193.08 241.085 192.411 240.093 192.61 239.069C195.927 222.005 186.495 194.824 186.399 194.552C186.054 193.567 186.572 192.488 187.556 192.143C188.541 191.798 189.619 192.316 189.965 193.3C190.369 194.453 199.83 221.73 196.32 239.79C196.144 240.693 195.353 241.319 194.467 241.319Z" fill="#C6677E"/>
<path d="M220.815 234.791C217.863 234.791 215.962 233.921 215.783 233.835C214.998 233.461 214.666 232.521 215.04 231.736C215.414 230.951 216.353 230.619 217.139 230.993C217.467 231.143 225.517 234.662 234.674 223.636C245.811 210.224 272.195 163.634 272.46 163.165C272.888 162.409 273.849 162.141 274.606 162.569C275.363 162.997 275.63 163.958 275.201 164.715C274.113 166.64 248.413 212.02 237.096 225.648C230.859 233.159 224.854 234.791 220.815 234.791Z" fill="#BE4F5C"/>
<path d="M179.014 151.424C178.633 151.424 178.252 151.287 177.949 151.009C177.309 150.42 177.267 149.424 177.856 148.784C179.635 146.848 221.513 101.316 227.027 96.4344C227.678 95.8585 228.673 95.9188 229.25 96.5697C229.826 97.2206 229.766 98.2157 229.115 98.7926C223.721 103.567 180.608 150.443 180.174 150.916C179.863 151.253 179.439 151.424 179.014 151.424Z" fill="#BE4F5C"/>
<path d="M352.46 800.098C351.862 800.098 351.333 799.672 351.222 799.064C351.187 798.872 347.697 779.759 344.26 767.642C342.729 762.244 342.715 754.03 342.7 745.334C342.68 733.926 342.658 720.996 339.077 712.857C333.008 699.064 330.688 690.373 332.99 675.344C334.546 665.184 329.467 648.299 325.385 634.73C323.97 630.025 322.633 625.581 321.784 622.071C318.504 608.526 302.7 508.841 300.54 492.639C298.242 475.407 270.546 338.007 270.267 336.621C270.13 335.939 270.571 335.275 271.252 335.137C271.934 335 272.599 335.441 272.736 336.123C273.016 337.509 300.729 474.991 303.037 492.306C305.194 508.485 320.964 607.98 324.233 621.478C325.066 624.921 326.393 629.333 327.798 634.005C331.952 647.815 337.122 665.003 335.48 675.725C333.456 688.947 334.725 696.71 341.383 711.843C345.176 720.464 345.199 733.674 345.219 745.329C345.234 753.847 345.248 761.892 346.684 766.954C350.155 779.189 353.665 798.419 353.701 798.612C353.825 799.297 353.371 799.953 352.687 800.077C352.61 800.091 352.534 800.098 352.46 800.098Z" fill="#669EB2"/>
<path d="M162.004 801.972C161.958 801.972 161.912 801.97 161.864 801.965C161.172 801.888 160.674 801.265 160.751 800.574C160.786 800.258 164.269 768.841 166.002 758.443C166.905 753.025 166.533 745.221 166.14 736.959C165.793 729.671 165.434 722.134 165.99 716.018C167.069 704.153 169.175 692.131 172.43 679.268C174.315 671.817 175.751 619.212 176.799 580.802C177.347 560.725 177.82 543.387 178.219 537.492C179.369 520.486 185.725 373.28 185.789 371.795C185.819 371.1 186.398 370.55 187.102 370.591C187.797 370.621 188.336 371.208 188.306 371.903C188.242 373.389 181.885 520.625 180.732 537.662C180.337 543.507 179.864 560.822 179.317 580.871C178.207 621.545 176.826 672.164 174.872 679.886C171.65 692.621 169.565 704.514 168.499 716.246C167.958 722.189 168.313 729.637 168.656 736.84C169.056 745.24 169.434 753.174 168.487 758.857C166.765 769.188 163.289 800.536 163.254 800.851C163.183 801.495 162.637 801.972 162.004 801.972Z" fill="#669EB2"/>
</svg>
