<svg width="24" height="24" viewBox="0 0 24 24" fill="none" xmlns="http://www.w3.org/2000/svg">
<rect width="24" height="24" rx="12" fill="url(#paint0_linear_1273_10967)"/>
<path d="M5 9.77979V15.4998C5 16.0302 5.21071 16.5389 5.58579 16.914C5.96086 17.2891 6.46957 17.4998 7 17.4998H17C17.5304 17.4998 18.0391 17.2891 18.4142 16.914C18.7893 16.5389 19 16.0302 19 15.4998V9.77979L13.048 13.4418C12.7328 13.6357 12.37 13.7383 12 13.7383C11.63 13.7383 11.2672 13.6357 10.952 13.4418L5 9.77979Z" fill="white"/>
<path d="M19 8.60533V8.5C19 7.96957 18.7893 7.46086 18.4142 7.08579C18.0391 6.71071 17.5304 6.5 17 6.5H7C6.46957 6.5 5.96086 6.71071 5.58579 7.08579C5.21071 7.46086 5 7.96957 5 8.5V8.60533L11.476 12.5907C11.6336 12.6876 11.815 12.7389 12 12.7389C12.185 12.7389 12.3664 12.6876 12.524 12.5907L19 8.60533Z" fill="white"/>
<defs>
<linearGradient id="paint0_linear_1273_10967" x1="8.52554" y1="16.249" x2="19.8989" y2="4.39869" gradientUnits="userSpaceOnUse">
<stop stop-color="#FD6F9B"/>
<stop offset="1" stop-color="#FD3F81"/>
</linearGradient>
</defs>
</svg>
