<svg width="25" height="24" viewBox="0 0 25 24" fill="none" xmlns="http://www.w3.org/2000/svg">
<path d="M22.5 6.75V17.25C22.5 17.8467 22.2629 18.419 21.841 18.841C21.419 19.2629 20.8467 19.5 20.25 19.5H5.25C4.65326 19.5 4.08097 19.2629 3.65901 18.841C3.23705 18.419 3 17.8467 3 17.25V6.75M22.5 6.75C22.5 6.15326 22.2629 5.58097 21.841 5.15901C21.419 4.73705 20.8467 4.5 20.25 4.5H5.25C4.65326 4.5 4.08097 4.73705 3.65901 5.15901C3.23705 5.58097 3 6.15326 3 6.75M22.5 6.75V6.993C22.5 7.37715 22.4017 7.75491 22.2144 8.0903C22.0271 8.42569 21.7571 8.70754 21.43 8.909L13.93 13.524C13.5752 13.7425 13.1667 13.8582 12.75 13.8582C12.3333 13.8582 11.9248 13.7425 11.57 13.524L4.07 8.91C3.74292 8.70854 3.47287 8.42669 3.28557 8.0913C3.09827 7.75591 2.99996 7.37815 3 6.994V6.75" stroke="white" stroke-width="1.5" stroke-linecap="round" stroke-linejoin="round"/>
</svg>
