<svg width="24" height="24" viewBox="0 0 24 24" fill="none" xmlns="http://www.w3.org/2000/svg">
<g clip-path="url(#clip0_1397_8929)">
<path d="M12.0034 7.95732C9.73201 7.95732 7.89987 9.76084 7.89987 11.9968C7.89987 14.2327 9.73201 16.0362 12.0034 16.0362C14.2749 16.0362 16.107 14.2327 16.107 11.9968C16.107 9.76084 14.2749 7.95732 12.0034 7.95732ZM12.0034 14.6229C10.5356 14.6229 9.33558 13.4452 9.33558 11.9968C9.33558 10.5483 10.532 9.3706 12.0034 9.3706C13.4749 9.3706 14.6713 10.5483 14.6713 11.9968C14.6713 13.4452 13.4713 14.6229 12.0034 14.6229ZM17.232 7.79209C17.232 8.31592 16.8034 8.73428 16.2749 8.73428C15.7427 8.73428 15.3177 8.3124 15.3177 7.79209C15.3177 7.27178 15.7463 6.8499 16.2749 6.8499C16.8034 6.8499 17.232 7.27178 17.232 7.79209ZM19.9499 8.74834C19.8891 7.48623 19.5963 6.36826 18.657 5.44717C17.7213 4.52607 16.5856 4.23779 15.3034 4.17451C13.982 4.10068 10.0213 4.10068 8.69987 4.17451C7.4213 4.23428 6.28558 4.52256 5.3463 5.44365C4.40701 6.36474 4.11773 7.48271 4.05344 8.74482C3.97844 10.0456 3.97844 13.9444 4.05344 15.2452C4.11416 16.5073 4.40701 17.6253 5.3463 18.5464C6.28558 19.4675 7.41773 19.7558 8.69987 19.819C10.0213 19.8929 13.982 19.8929 15.3034 19.819C16.5856 19.7593 17.7213 19.471 18.657 18.5464C19.5927 17.6253 19.8856 16.5073 19.9499 15.2452C20.0249 13.9444 20.0249 10.0491 19.9499 8.74834ZM18.2427 16.6409C17.9641 17.33 17.4249 17.8608 16.7213 18.1386C15.6677 18.5499 13.1677 18.455 12.0034 18.455C10.8392 18.455 8.33558 18.5464 7.28558 18.1386C6.58558 17.8643 6.0463 17.3335 5.76416 16.6409C5.3463 15.6038 5.44273 13.1429 5.44273 11.9968C5.44273 10.8507 5.34987 8.38623 5.76416 7.35263C6.04273 6.66357 6.58201 6.13271 7.28558 5.85498C8.33915 5.44365 10.8392 5.53857 12.0034 5.53857C13.1677 5.53857 15.6713 5.44717 16.7213 5.85498C17.4213 6.1292 17.9606 6.66006 18.2427 7.35263C18.6606 8.38974 18.5641 10.8507 18.5641 11.9968C18.5641 13.1429 18.6606 15.6073 18.2427 16.6409Z" fill="white"/>
</g>
<defs>
<clipPath id="clip0_1397_8929">
<rect width="16" height="18" fill="white" transform="translate(4.00012 3)"/>
</clipPath>
</defs>
</svg>
