<svg width="25" height="24" viewBox="0 0 25 24" fill="none" xmlns="http://www.w3.org/2000/svg">
<path d="M15.75 10.5C15.75 11.2956 15.4339 12.0587 14.8713 12.6213C14.3087 13.1839 13.5456 13.5 12.75 13.5C11.9544 13.5 11.1913 13.1839 10.6287 12.6213C10.0661 12.0587 9.75 11.2956 9.75 10.5C9.75 9.70435 10.0661 8.94129 10.6287 8.37868C11.1913 7.81607 11.9544 7.5 12.75 7.5C13.5456 7.5 14.3087 7.81607 14.8713 8.37868C15.4339 8.94129 15.75 9.70435 15.75 10.5Z" stroke="white" stroke-width="1.5" stroke-linecap="round" stroke-linejoin="round"/>
<path d="M20.25 10.5C20.25 17.642 12.75 21.75 12.75 21.75C12.75 21.75 5.25 17.642 5.25 10.5C5.25 8.51088 6.04018 6.60322 7.4467 5.1967C8.85322 3.79018 10.7609 3 12.75 3C14.7391 3 16.6468 3.79018 18.0533 5.1967C19.4598 6.60322 20.25 8.51088 20.25 10.5Z" stroke="white" stroke-width="1.5" stroke-linecap="round" stroke-linejoin="round"/>
</svg>
