<svg width="20" height="21" viewBox="0 0 20 21" fill="none" xmlns="http://www.w3.org/2000/svg">
<path d="M12.5 9.25C12.5 9.91304 12.2366 10.5489 11.7678 11.0178C11.2989 11.4866 10.663 11.75 10 11.75C9.33696 11.75 8.70107 11.4866 8.23223 11.0178C7.76339 10.5489 7.5 9.91304 7.5 9.25C7.5 8.58696 7.76339 7.95107 8.23223 7.48223C8.70107 7.01339 9.33696 6.75 10 6.75C10.663 6.75 11.2989 7.01339 11.7678 7.48223C12.2366 7.95107 12.5 8.58696 12.5 9.25Z" stroke="#61B0FF" stroke-width="1.5" stroke-linecap="round" stroke-linejoin="round"/>
<path d="M16.25 9.25C16.25 15.2017 10 18.625 10 18.625C10 18.625 3.75 15.2017 3.75 9.25C3.75 7.5924 4.40848 6.00268 5.58058 4.83058C6.75268 3.65848 8.3424 3 10 3C11.6576 3 13.2473 3.65848 14.4194 4.83058C15.5915 6.00268 16.25 7.5924 16.25 9.25Z" stroke="#61B0FF" stroke-width="1.5" stroke-linecap="round" stroke-linejoin="round"/>
</svg>
