<svg width="243" height="45" viewBox="0 0 243 45" fill="none" xmlns="http://www.w3.org/2000/svg">
<path d="M44.9432 16.875C44.4207 14.8798 43.6289 12.9904 42.6076 11.25C41.8475 9.95253 40.9568 8.73345 39.9553 7.61629C39.3258 6.91071 38.6489 6.24434 37.9324 5.625C36.7962 4.6372 35.565 3.75915 34.2468 3.01045C32.4812 2.00305 30.5652 1.223 28.5383 0.709495C26.7134 0.246951 24.8013 0 22.8299 0C20.8584 0 18.9464 0.246951 17.1214 0.709495C15.0985 1.223 13.1825 2.00305 11.413 3.01045C10.0947 3.76307 8.85959 4.6372 7.7274 5.625C7.01088 6.24826 6.33789 6.91071 5.7045 7.61629C4.70295 8.73345 3.81224 9.94861 3.05217 11.25C2.03082 12.9904 1.23908 14.8798 0.716526 16.875C0.249399 18.6742 0 20.5557 0 22.5V39.3201C0 42.456 2.58108 45 5.76388 45H22.8299C24.8013 45 26.7134 44.753 28.5383 44.2905C30.5612 43.777 32.4773 42.9969 34.2468 41.9895C35.565 41.2369 36.8002 40.3628 37.9324 39.375C38.6489 38.7517 39.3219 38.0893 39.9553 37.3837C40.9568 36.2666 41.8475 35.0514 42.6076 33.75C43.6289 32.0096 44.4207 30.1202 44.9432 28.125C45.4143 26.3258 45.6637 24.4443 45.6637 22.5C45.6637 20.5557 45.4104 18.6742 44.9432 16.875ZM31.8914 25.6202H20.1142C19.0374 25.6202 18.1626 24.7539 18.1626 23.6877C18.1626 22.6215 19.0374 21.7552 20.1142 21.7552H31.444C31.6776 21.7552 31.8914 21.6651 32.0497 21.4965C32.2081 21.3319 32.2912 21.1084 32.2833 20.8772C32.2081 19.3367 31.7568 17.8197 30.9809 16.4909C30.1179 15.0131 28.8748 13.7822 27.3824 12.9277C25.8939 12.0771 24.1956 11.6263 22.4696 11.6263C20.7436 11.6263 19.0454 12.0771 17.5569 12.9277C16.0644 13.7822 14.8214 15.0131 13.9584 16.4909C13.0994 17.9647 12.6441 19.6463 12.6441 21.3554C12.6441 23.0645 13.0994 24.7461 13.9584 26.2199C14.8214 27.6977 16.0644 28.9286 17.5569 29.7831C19.0454 30.6337 20.7436 31.0845 22.4696 31.0845H32.3189C33.3957 31.0845 34.2705 31.9508 34.2705 33.017C34.2705 34.0832 33.3957 34.9495 32.3189 34.9495H22.4696C20.898 34.9495 19.3581 34.6908 17.8934 34.1773C16.199 33.5854 14.6591 32.6799 13.3171 31.4882C12.9371 31.1551 12.5768 30.7944 12.2364 30.4181C11.0329 29.0854 10.1185 27.5605 9.5207 25.8868C9.00211 24.4364 8.74083 22.9116 8.74083 21.3554C8.74083 19.7992 9.00211 18.2744 9.5207 16.824C10.1185 15.1463 11.0329 13.6215 12.2364 12.2927C12.5729 11.9164 12.9371 11.5597 13.3171 11.2226C14.6631 10.0309 16.203 9.12543 17.8934 8.53354C19.3581 8.02003 20.898 7.76132 22.4696 7.76132C24.0412 7.76132 25.5812 8.02003 27.0459 8.53354C28.7402 9.12543 30.2802 10.0309 31.6222 11.2226C32.0022 11.5557 32.3625 11.9164 32.7029 12.2927C33.9063 13.6254 34.8208 15.1503 35.4186 16.824C35.9372 18.2744 36.1984 19.7992 36.1984 21.3554C36.1984 23.7073 34.2666 25.6202 31.8914 25.6202Z" fill="#EB3A66"/>
<path d="M65.1121 14.033V19.9636H72.8019V23.7253H65.1121V29.9947H73.7836V33.858H60.531V10.1697H73.7836V14.033H65.1121Z" fill="#36D399"/>
<path d="M65.1121 14.033V19.9636H72.8019V23.7253H65.1121V29.9947H73.7836V33.858H60.531V10.1697H73.7836V14.033H65.1121Z" fill="white"/>
<path d="M87.9598 33.858L84.2295 28.0291L80.9245 33.858H76.0161L81.9389 24.4369L75.9507 15.0836H81.1208L84.8185 20.8786L88.1562 15.0836H93.0645L87.109 24.4369L93.13 33.858H87.9598Z" fill="#36D399"/>
<path d="M87.9598 33.858L84.2295 28.0291L80.9245 33.858H76.0161L81.9389 24.4369L75.9507 15.0836H81.1208L84.8185 20.8786L88.1562 15.0836H93.0645L87.109 24.4369L93.13 33.858H87.9598Z" fill="white"/>
<path d="M100.199 17.7947C100.788 16.9362 101.595 16.2245 102.621 15.6597C103.668 15.0723 104.857 14.7786 106.188 14.7786C107.736 14.7786 109.133 15.174 110.376 15.9647C111.641 16.7554 112.634 17.8851 113.354 19.3536C114.095 20.7995 114.466 22.4827 114.466 24.403C114.466 26.3234 114.095 28.0291 113.354 29.5202C112.634 30.9888 111.641 32.1297 110.376 32.943C109.133 33.7563 107.736 34.163 106.188 34.163C104.857 34.163 103.679 33.8806 102.654 33.3158C101.65 32.751 100.832 32.0393 100.199 31.1808V42.8047H95.6182V15.0836H100.199V17.7947ZM109.787 24.403C109.787 23.2734 109.558 22.3019 109.1 21.4886C108.664 20.6527 108.075 20.0201 107.333 19.5908C106.613 19.1616 105.828 18.9469 104.977 18.9469C104.148 18.9469 103.362 19.1728 102.621 19.6247C101.901 20.054 101.312 20.6866 100.854 21.5225C100.417 22.3584 100.199 23.3412 100.199 24.4708C100.199 25.6004 100.417 26.5832 100.854 27.4191C101.312 28.2551 101.901 28.8989 102.621 29.3508C103.362 29.7801 104.148 29.9947 104.977 29.9947C105.828 29.9947 106.613 29.7688 107.333 29.3169C108.075 28.8651 108.664 28.2212 109.1 27.3852C109.558 26.5493 109.787 25.5552 109.787 24.403Z" fill="#36D399"/>
<path d="M100.199 17.7947C100.788 16.9362 101.595 16.2245 102.621 15.6597C103.668 15.0723 104.857 14.7786 106.188 14.7786C107.736 14.7786 109.133 15.174 110.376 15.9647C111.641 16.7554 112.634 17.8851 113.354 19.3536C114.095 20.7995 114.466 22.4827 114.466 24.403C114.466 26.3234 114.095 28.0291 113.354 29.5202C112.634 30.9888 111.641 32.1297 110.376 32.943C109.133 33.7563 107.736 34.163 106.188 34.163C104.857 34.163 103.679 33.8806 102.654 33.3158C101.65 32.751 100.832 32.0393 100.199 31.1808V42.8047H95.6182V15.0836H100.199V17.7947ZM109.787 24.403C109.787 23.2734 109.558 22.3019 109.1 21.4886C108.664 20.6527 108.075 20.0201 107.333 19.5908C106.613 19.1616 105.828 18.9469 104.977 18.9469C104.148 18.9469 103.362 19.1728 102.621 19.6247C101.901 20.054 101.312 20.6866 100.854 21.5225C100.417 22.3584 100.199 23.3412 100.199 24.4708C100.199 25.6004 100.417 26.5832 100.854 27.4191C101.312 28.2551 101.901 28.8989 102.621 29.3508C103.362 29.7801 104.148 29.9947 104.977 29.9947C105.828 29.9947 106.613 29.7688 107.333 29.3169C108.075 28.8651 108.664 28.2212 109.1 27.3852C109.558 26.5493 109.787 25.5552 109.787 24.403Z" fill="white"/>
<path d="M122.376 8.78027V33.858H117.795V8.78027H122.376Z" fill="#36D399"/>
<path d="M122.376 8.78027V33.858H117.795V8.78027H122.376Z" fill="white"/>
<path d="M134.952 34.163C133.207 34.163 131.637 33.7676 130.24 32.9769C128.844 32.1636 127.743 31.0226 126.935 29.5541C126.15 28.0856 125.757 26.3912 125.757 24.4708C125.757 22.5504 126.161 20.856 126.968 19.3875C127.797 17.919 128.921 16.7893 130.339 15.9986C131.756 15.1853 133.338 14.7786 135.083 14.7786C136.828 14.7786 138.41 15.1853 139.828 15.9986C141.246 16.7893 142.359 17.919 143.166 19.3875C143.995 20.856 144.409 22.5504 144.409 24.4708C144.409 26.3912 143.984 28.0856 143.133 29.5541C142.304 31.0226 141.17 32.1636 139.73 32.9769C138.312 33.7676 136.719 34.163 134.952 34.163ZM134.952 30.0286C135.781 30.0286 136.556 29.8252 137.276 29.4186C138.017 28.9893 138.606 28.3567 139.043 27.5208C139.479 26.6849 139.697 25.6682 139.697 24.4708C139.697 22.686 139.239 21.3191 138.323 20.3703C137.428 19.3988 136.327 18.913 135.018 18.913C133.709 18.913 132.607 19.3988 131.713 20.3703C130.84 21.3191 130.404 22.686 130.404 24.4708C130.404 26.2556 130.829 27.6338 131.68 28.6052C132.553 29.5541 133.643 30.0286 134.952 30.0286Z" fill="#36D399"/>
<path d="M134.952 34.163C133.207 34.163 131.637 33.7676 130.24 32.9769C128.844 32.1636 127.743 31.0226 126.935 29.5541C126.15 28.0856 125.757 26.3912 125.757 24.4708C125.757 22.5504 126.161 20.856 126.968 19.3875C127.797 17.919 128.921 16.7893 130.339 15.9986C131.756 15.1853 133.338 14.7786 135.083 14.7786C136.828 14.7786 138.41 15.1853 139.828 15.9986C141.246 16.7893 142.359 17.919 143.166 19.3875C143.995 20.856 144.409 22.5504 144.409 24.4708C144.409 26.3912 143.984 28.0856 143.133 29.5541C142.304 31.0226 141.17 32.1636 139.73 32.9769C138.312 33.7676 136.719 34.163 134.952 34.163ZM134.952 30.0286C135.781 30.0286 136.556 29.8252 137.276 29.4186C138.017 28.9893 138.606 28.3567 139.043 27.5208C139.479 26.6849 139.697 25.6682 139.697 24.4708C139.697 22.686 139.239 21.3191 138.323 20.3703C137.428 19.3988 136.327 18.913 135.018 18.913C133.709 18.913 132.607 19.3988 131.713 20.3703C130.84 21.3191 130.404 22.686 130.404 24.4708C130.404 26.2556 130.829 27.6338 131.68 28.6052C132.553 29.5541 133.643 30.0286 134.952 30.0286Z" fill="white"/>
<path d="M152.351 17.998C152.94 17.004 153.703 16.2245 154.641 15.6597C155.601 15.0949 156.692 14.8125 157.914 14.8125V19.7941H156.703C155.263 19.7941 154.172 20.1443 153.431 20.8447C152.711 21.5451 152.351 22.7651 152.351 24.5047V33.858H147.77V15.0836H152.351V17.998Z" fill="#36D399"/>
<path d="M152.351 17.998C152.94 17.004 153.703 16.2245 154.641 15.6597C155.601 15.0949 156.692 14.8125 157.914 14.8125V19.7941H156.703C155.263 19.7941 154.172 20.1443 153.431 20.8447C152.711 21.5451 152.351 22.7651 152.351 24.5047V33.858H147.77V15.0836H152.351V17.998Z" fill="white"/>
<path d="M177.851 24.0641C177.851 24.7419 177.808 25.3519 177.72 25.8941H164.468C164.577 27.2497 165.035 28.3115 165.842 29.0797C166.649 29.8478 167.642 30.2319 168.82 30.2319C170.521 30.2319 171.732 29.4751 172.452 27.9614H177.393C176.87 29.7688 175.866 31.2599 174.383 32.4347C172.899 33.5869 171.078 34.163 168.918 34.163C167.173 34.163 165.602 33.7676 164.206 32.9769C162.832 32.1636 161.752 31.0226 160.967 29.5541C160.203 28.0856 159.821 26.3912 159.821 24.4708C159.821 22.5278 160.203 20.8221 160.967 19.3536C161.73 17.8851 162.799 16.7554 164.173 15.9647C165.548 15.174 167.129 14.7786 168.918 14.7786C170.641 14.7786 172.179 15.1627 173.532 15.9308C174.906 16.699 175.964 17.7947 176.706 19.218C177.47 20.6188 177.851 22.2341 177.851 24.0641ZM173.107 22.7086C173.085 21.4886 172.659 20.5171 171.83 19.7941C171.001 19.0486 169.987 18.6758 168.787 18.6758C167.653 18.6758 166.693 19.0373 165.908 19.7603C165.144 20.4606 164.675 21.4434 164.501 22.7086H173.107Z" fill="#36D399"/>
<path d="M177.851 24.0641C177.851 24.7419 177.808 25.3519 177.72 25.8941H164.468C164.577 27.2497 165.035 28.3115 165.842 29.0797C166.649 29.8478 167.642 30.2319 168.82 30.2319C170.521 30.2319 171.732 29.4751 172.452 27.9614H177.393C176.87 29.7688 175.866 31.2599 174.383 32.4347C172.899 33.5869 171.078 34.163 168.918 34.163C167.173 34.163 165.602 33.7676 164.206 32.9769C162.832 32.1636 161.752 31.0226 160.967 29.5541C160.203 28.0856 159.821 26.3912 159.821 24.4708C159.821 22.5278 160.203 20.8221 160.967 19.3536C161.73 17.8851 162.799 16.7554 164.173 15.9647C165.548 15.174 167.129 14.7786 168.918 14.7786C170.641 14.7786 172.179 15.1627 173.532 15.9308C174.906 16.699 175.964 17.7947 176.706 19.218C177.47 20.6188 177.851 22.2341 177.851 24.0641ZM173.107 22.7086C173.085 21.4886 172.659 20.5171 171.83 19.7941C171.001 19.0486 169.987 18.6758 168.787 18.6758C167.653 18.6758 166.693 19.0373 165.908 19.7603C165.144 20.4606 164.675 21.4434 164.501 22.7086H173.107Z" fill="white"/>
<path d="M189.179 10.2036C191.579 10.2036 193.684 10.6893 195.495 11.6608C197.327 12.6323 198.734 14.0217 199.716 15.8292C200.72 17.614 201.221 19.6925 201.221 22.0647C201.221 24.4369 200.72 26.5154 199.716 28.3002C198.734 30.0625 197.327 31.4293 195.495 32.4008C193.684 33.3723 191.579 33.858 189.179 33.858H181.195V10.2036H189.179ZM189.016 29.8252C191.415 29.8252 193.27 29.1475 194.579 27.7919C195.888 26.4364 196.542 24.5273 196.542 22.0647C196.542 19.6021 195.888 17.6817 194.579 16.3036C193.27 14.9029 191.415 14.2025 189.016 14.2025H185.776V29.8252H189.016Z" fill="#36D399"/>
<path d="M189.179 10.2036C191.579 10.2036 193.684 10.6893 195.495 11.6608C197.327 12.6323 198.734 14.0217 199.716 15.8292C200.72 17.614 201.221 19.6925 201.221 22.0647C201.221 24.4369 200.72 26.5154 199.716 28.3002C198.734 30.0625 197.327 31.4293 195.495 32.4008C193.684 33.3723 191.579 33.858 189.179 33.858H181.195V10.2036H189.179ZM189.016 29.8252C191.415 29.8252 193.27 29.1475 194.579 27.7919C195.888 26.4364 196.542 24.5273 196.542 22.0647C196.542 19.6021 195.888 17.6817 194.579 16.3036C193.27 14.9029 191.415 14.2025 189.016 14.2025H185.776V29.8252H189.016Z" fill="white"/>
<path d="M221.503 24.0641C221.503 24.7419 221.459 25.3519 221.372 25.8941H208.119C208.228 27.2497 208.686 28.3115 209.493 29.0797C210.301 29.8478 211.293 30.2319 212.471 30.2319C214.173 30.2319 215.383 29.4751 216.103 27.9614H221.044C220.521 29.7688 219.517 31.2599 218.034 32.4347C216.551 33.5869 214.729 34.163 212.569 34.163C210.824 34.163 209.253 33.7676 207.857 32.9769C206.483 32.1636 205.403 31.0226 204.618 29.5541C203.854 28.0856 203.473 26.3912 203.473 24.4708C203.473 22.5278 203.854 20.8221 204.618 19.3536C205.381 17.8851 206.45 16.7554 207.825 15.9647C209.199 15.174 210.781 14.7786 212.569 14.7786C214.293 14.7786 215.831 15.1627 217.183 15.9308C218.558 16.699 219.616 17.7947 220.357 19.218C221.121 20.6188 221.503 22.2341 221.503 24.0641ZM216.758 22.7086C216.736 21.4886 216.311 20.5171 215.482 19.7941C214.653 19.0486 213.638 18.6758 212.438 18.6758C211.304 18.6758 210.344 19.0373 209.559 19.7603C208.795 20.4606 208.326 21.4434 208.152 22.7086H216.758Z" fill="#36D399"/>
<path d="M221.503 24.0641C221.503 24.7419 221.459 25.3519 221.372 25.8941H208.119C208.228 27.2497 208.686 28.3115 209.493 29.0797C210.301 29.8478 211.293 30.2319 212.471 30.2319C214.173 30.2319 215.383 29.4751 216.103 27.9614H221.044C220.521 29.7688 219.517 31.2599 218.034 32.4347C216.551 33.5869 214.729 34.163 212.569 34.163C210.824 34.163 209.253 33.7676 207.857 32.9769C206.483 32.1636 205.403 31.0226 204.618 29.5541C203.854 28.0856 203.473 26.3912 203.473 24.4708C203.473 22.5278 203.854 20.8221 204.618 19.3536C205.381 17.8851 206.45 16.7554 207.825 15.9647C209.199 15.174 210.781 14.7786 212.569 14.7786C214.293 14.7786 215.831 15.1627 217.183 15.9308C218.558 16.699 219.616 17.7947 220.357 19.218C221.121 20.6188 221.503 22.2341 221.503 24.0641ZM216.758 22.7086C216.736 21.4886 216.311 20.5171 215.482 19.7941C214.653 19.0486 213.638 18.6758 212.438 18.6758C211.304 18.6758 210.344 19.0373 209.559 19.7603C208.795 20.4606 208.326 21.4434 208.152 22.7086H216.758Z" fill="white"/>
<path d="M234.892 14.8125C237.052 14.8125 238.797 15.5242 240.128 16.9475C241.459 18.3482 242.124 20.3138 242.124 22.8441V33.858H237.543V23.488C237.543 21.9969 237.183 20.856 236.463 20.0653C235.743 19.2519 234.761 18.8453 233.518 18.8453C232.253 18.8453 231.249 19.2519 230.507 20.0653C229.788 20.856 229.428 21.9969 229.428 23.488V33.858H224.846V15.0836H229.428V17.4219C230.038 16.6086 230.813 15.976 231.751 15.5242C232.711 15.0497 233.758 14.8125 234.892 14.8125Z" fill="#36D399"/>
<path d="M234.892 14.8125C237.052 14.8125 238.797 15.5242 240.128 16.9475C241.459 18.3482 242.124 20.3138 242.124 22.8441V33.858H237.543V23.488C237.543 21.9969 237.183 20.856 236.463 20.0653C235.743 19.2519 234.761 18.8453 233.518 18.8453C232.253 18.8453 231.249 19.2519 230.507 20.0653C229.788 20.856 229.428 21.9969 229.428 23.488V33.858H224.846V15.0836H229.428V17.4219C230.038 16.6086 230.813 15.976 231.751 15.5242C232.711 15.0497 233.758 14.8125 234.892 14.8125Z" fill="white"/>
</svg>
