<svg width="204" height="38" viewBox="0 0 204 38" fill="none" xmlns="http://www.w3.org/2000/svg">
<path d="M37.8272 14.375C37.3874 12.7345 36.721 11.181 35.8614 9.75C35.2217 8.68319 34.472 7.68084 33.629 6.76228C33.0992 6.18214 32.5295 5.63423 31.9264 5.125C30.9701 4.3128 29.9339 3.59085 28.8244 2.97526C27.3384 2.14695 25.7257 1.50557 24.0198 1.08336C22.4838 0.703049 20.8744 0.5 19.2151 0.5C17.5559 0.5 15.9465 0.703049 14.4105 1.08336C12.7079 1.50557 11.0953 2.14695 9.60591 2.97526C8.49638 3.59408 7.45682 4.3128 6.5039 5.125C5.90082 5.63746 5.33439 6.18214 4.80129 6.76228C3.95831 7.68084 3.20863 8.67997 2.56891 9.75C1.70927 11.181 1.04289 12.7345 0.603076 14.375C0.209911 15.8544 0 17.4014 0 19V32.8299C0 35.4083 2.17241 37.5 4.85127 37.5H19.2151C20.8744 37.5 22.4838 37.2969 24.0198 36.9166C25.7224 36.4944 27.335 35.853 28.8244 35.0247C29.9339 34.4059 30.9735 33.6872 31.9264 32.875C32.5295 32.3625 33.0959 31.8179 33.629 31.2377C34.472 30.3192 35.2217 29.32 35.8614 28.25C36.721 26.819 37.3874 25.2655 37.8272 23.625C38.2237 22.1456 38.4336 20.5986 38.4336 19C38.4336 17.4014 38.2204 15.8544 37.8272 14.375ZM26.8419 21.5655H16.9295C16.0232 21.5655 15.2868 20.8532 15.2868 19.9766C15.2868 19.0999 16.0232 18.3876 16.9295 18.3876H26.4654C26.662 18.3876 26.8419 18.3135 26.9752 18.1749C27.1085 18.0395 27.1784 17.8558 27.1718 17.6657C27.1085 16.399 26.7286 15.1517 26.0756 14.0591C25.3492 12.8441 24.303 11.8321 23.0468 11.1294C21.794 10.4301 20.3647 10.0594 18.9119 10.0594C17.4592 10.0594 16.0298 10.4301 14.777 11.1294C13.5209 11.8321 12.4747 12.8441 11.7483 14.0591C11.0253 15.271 10.6421 16.6537 10.6421 18.0589C10.6421 19.4641 11.0253 20.8468 11.7483 22.0586C12.4747 23.2737 13.5209 24.2857 14.777 24.9883C16.0298 25.6877 17.4592 26.0584 18.9119 26.0584H27.2017C28.108 26.0584 28.8444 26.7706 28.8444 27.6473C28.8444 28.524 28.108 29.2362 27.2017 29.2362H18.9119C17.5892 29.2362 16.2931 29.0235 15.0603 28.6013C13.6342 28.1146 12.3381 27.3701 11.2086 26.3903C10.8887 26.1164 10.5855 25.8199 10.2989 25.5105C9.28604 24.4146 8.51637 23.1609 8.01325 21.7847C7.57677 20.5922 7.35687 19.3384 7.35687 18.0589C7.35687 16.7794 7.57677 15.5256 8.01325 14.3331C8.51637 12.9537 9.28604 11.6999 10.2989 10.6073C10.5822 10.2979 10.8887 10.0046 11.2086 9.72744C12.3414 8.74765 13.6375 8.00314 15.0603 7.51646C16.2931 7.09425 17.5892 6.88153 18.9119 6.88153C20.2347 6.88153 21.5308 7.09425 22.7636 7.51646C24.1897 8.00314 25.4858 8.74765 26.6153 9.72744C26.9352 10.0014 27.2384 10.2979 27.5249 10.6073C28.5378 11.7031 29.3075 12.9569 29.8106 14.3331C30.2471 15.5256 30.467 16.7794 30.467 18.0589C30.467 19.9927 28.841 21.5655 26.8419 21.5655Z" fill="#EB3A66"/>
<path d="M54.8027 12.0387V16.9149H61.2749V20.0078H54.8027V25.1627H62.1012V28.3392H50.9469V8.86216H62.1012V12.0387H54.8027Z" fill="#36D399"/>
<path d="M54.8027 12.0387V16.9149H61.2749V20.0078H54.8027V25.1627H62.1012V28.3392H50.9469V8.86216H62.1012V12.0387H54.8027Z" fill="black"/>
<path d="M74.0329 28.3392L70.8931 23.5466L68.1114 28.3392H63.9802L68.9652 20.593L63.9252 12.9025H68.2767L71.3889 17.6672L74.1981 12.9025H78.3293L73.3168 20.593L78.3844 28.3392H74.0329Z" fill="#36D399"/>
<path d="M74.0329 28.3392L70.8931 23.5466L68.1114 28.3392H63.9802L68.9652 20.593L63.9252 12.9025H68.2767L71.3889 17.6672L74.1981 12.9025H78.3293L73.3168 20.593L78.3844 28.3392H74.0329Z" fill="black"/>
<path d="M84.3344 15.1316C84.8302 14.4257 85.5095 13.8406 86.3725 13.3761C87.2538 12.8932 88.2545 12.6517 89.3745 12.6517C90.6781 12.6517 91.8532 12.9768 92.8998 13.6269C93.9647 14.2771 94.8002 15.2059 95.4061 16.4133C96.0303 17.6022 96.3425 18.9861 96.3425 20.5651C96.3425 22.1441 96.0303 23.5466 95.4061 24.7726C94.8002 25.98 93.9647 26.9181 92.8998 27.5869C91.8532 28.2556 90.6781 28.59 89.3745 28.59C88.2545 28.59 87.263 28.3578 86.4 27.8934C85.5554 27.429 84.8669 26.8438 84.3344 26.1379V35.6953H80.4786V12.9025H84.3344V15.1316ZM92.4041 20.5651C92.4041 19.6363 92.2113 18.8375 91.8257 18.1688C91.4585 17.4815 90.9627 16.9613 90.3385 16.6084C89.7325 16.2554 89.0715 16.079 88.3555 16.079C87.6578 16.079 86.9968 16.2647 86.3725 16.6363C85.7666 16.9892 85.2708 17.5093 84.8853 18.1966C84.518 18.884 84.3344 19.692 84.3344 20.6208C84.3344 21.5496 84.518 22.3577 84.8853 23.045C85.2708 23.7323 85.7666 24.2617 86.3725 24.6333C86.9968 24.9862 87.6578 25.1627 88.3555 25.1627C89.0715 25.1627 89.7325 24.9769 90.3385 24.6054C90.9627 24.2339 91.4585 23.7045 91.8257 23.0171C92.2113 22.3298 92.4041 21.5125 92.4041 20.5651Z" fill="#36D399"/>
<path d="M84.3344 15.1316C84.8302 14.4257 85.5095 13.8406 86.3725 13.3761C87.2538 12.8932 88.2545 12.6517 89.3745 12.6517C90.6781 12.6517 91.8532 12.9768 92.8998 13.6269C93.9647 14.2771 94.8002 15.2059 95.4061 16.4133C96.0303 17.6022 96.3425 18.9861 96.3425 20.5651C96.3425 22.1441 96.0303 23.5466 95.4061 24.7726C94.8002 25.98 93.9647 26.9181 92.8998 27.5869C91.8532 28.2556 90.6781 28.59 89.3745 28.59C88.2545 28.59 87.263 28.3578 86.4 27.8934C85.5554 27.429 84.8669 26.8438 84.3344 26.1379V35.6953H80.4786V12.9025H84.3344V15.1316ZM92.4041 20.5651C92.4041 19.6363 92.2113 18.8375 91.8257 18.1688C91.4585 17.4815 90.9627 16.9613 90.3385 16.6084C89.7325 16.2554 89.0715 16.079 88.3555 16.079C87.6578 16.079 86.9968 16.2647 86.3725 16.6363C85.7666 16.9892 85.2708 17.5093 84.8853 18.1966C84.518 18.884 84.3344 19.692 84.3344 20.6208C84.3344 21.5496 84.518 22.3577 84.8853 23.045C85.2708 23.7323 85.7666 24.2617 86.3725 24.6333C86.9968 24.9862 87.6578 25.1627 88.3555 25.1627C89.0715 25.1627 89.7325 24.9769 90.3385 24.6054C90.9627 24.2339 91.4585 23.7045 91.8257 23.0171C92.2113 22.3298 92.4041 21.5125 92.4041 20.5651Z" fill="black"/>
<path d="M103 7.71973V28.3392H99.1444V7.71973H103Z" fill="#36D399"/>
<path d="M103 7.71973V28.3392H99.1444V7.71973H103Z" fill="black"/>
<path d="M113.585 28.59C112.116 28.59 110.794 28.2649 109.619 27.6147C108.444 26.946 107.517 26.0079 106.837 24.8005C106.176 23.593 105.846 22.1998 105.846 20.6208C105.846 19.0419 106.185 17.6487 106.865 16.4412C107.563 15.2338 108.508 14.305 109.702 13.6548C110.895 12.9861 112.226 12.6517 113.695 12.6517C115.164 12.6517 116.495 12.9861 117.689 13.6548C118.882 14.305 119.818 15.2338 120.498 16.4412C121.196 17.6487 121.544 19.0419 121.544 20.6208C121.544 22.1998 121.186 23.593 120.47 24.8005C119.773 26.0079 118.818 26.946 117.606 27.6147C116.413 28.2649 115.072 28.59 113.585 28.59ZM113.585 25.1905C114.283 25.1905 114.934 25.0234 115.54 24.689C116.165 24.336 116.66 23.8159 117.028 23.1286C117.395 22.4413 117.578 21.6054 117.578 20.6208C117.578 19.1533 117.193 18.0295 116.422 17.2493C115.669 16.4505 114.742 16.0511 113.64 16.0511C112.538 16.0511 111.611 16.4505 110.858 17.2493C110.124 18.0295 109.757 19.1533 109.757 20.6208C109.757 22.0883 110.115 23.2215 110.831 24.0203C111.565 24.8005 112.483 25.1905 113.585 25.1905Z" fill="#36D399"/>
<path d="M113.585 28.59C112.116 28.59 110.794 28.2649 109.619 27.6147C108.444 26.946 107.517 26.0079 106.837 24.8005C106.176 23.593 105.846 22.1998 105.846 20.6208C105.846 19.0419 106.185 17.6487 106.865 16.4412C107.563 15.2338 108.508 14.305 109.702 13.6548C110.895 12.9861 112.226 12.6517 113.695 12.6517C115.164 12.6517 116.495 12.9861 117.689 13.6548C118.882 14.305 119.818 15.2338 120.498 16.4412C121.196 17.6487 121.544 19.0419 121.544 20.6208C121.544 22.1998 121.186 23.593 120.47 24.8005C119.773 26.0079 118.818 26.946 117.606 27.6147C116.413 28.2649 115.072 28.59 113.585 28.59ZM113.585 25.1905C114.283 25.1905 114.934 25.0234 115.54 24.689C116.165 24.336 116.66 23.8159 117.028 23.1286C117.395 22.4413 117.578 21.6054 117.578 20.6208C117.578 19.1533 117.193 18.0295 116.422 17.2493C115.669 16.4505 114.742 16.0511 113.64 16.0511C112.538 16.0511 111.611 16.4505 110.858 17.2493C110.124 18.0295 109.757 19.1533 109.757 20.6208C109.757 22.0883 110.115 23.2215 110.831 24.0203C111.565 24.8005 112.483 25.1905 113.585 25.1905Z" fill="black"/>
<path d="M128.229 15.2988C128.724 14.4814 129.367 13.8406 130.156 13.3761C130.964 12.9117 131.882 12.6795 132.911 12.6795V16.7756H131.892C130.68 16.7756 129.762 17.0635 129.137 17.6394C128.532 18.2152 128.229 19.2183 128.229 20.6487V28.3392H124.373V12.9025H128.229V15.2988Z" fill="#36D399"/>
<path d="M128.229 15.2988C128.724 14.4814 129.367 13.8406 130.156 13.3761C130.964 12.9117 131.882 12.6795 132.911 12.6795V16.7756H131.892C130.68 16.7756 129.762 17.0635 129.137 17.6394C128.532 18.2152 128.229 19.2183 128.229 20.6487V28.3392H124.373V12.9025H128.229V15.2988Z" fill="black"/>
<path d="M149.692 20.2865C149.692 20.8437 149.655 21.3453 149.581 21.7911H138.427C138.519 22.9057 138.904 23.7788 139.584 24.4104C140.263 25.0419 141.099 25.3577 142.09 25.3577C143.522 25.3577 144.541 24.7354 145.147 23.4908H149.306C148.865 24.9769 148.021 26.2029 146.772 27.1689C145.524 28.1163 143.99 28.59 142.173 28.59C140.704 28.59 139.382 28.2649 138.207 27.6147C137.05 26.946 136.141 26.0079 135.48 24.8005C134.838 23.593 134.516 22.1998 134.516 20.6208C134.516 19.0233 134.838 17.6208 135.48 16.4133C136.123 15.2059 137.022 14.2771 138.179 13.6269C139.336 12.9768 140.667 12.6517 142.173 12.6517C143.623 12.6517 144.918 12.9675 146.056 13.5991C147.213 14.2306 148.103 15.1316 148.728 16.3019C149.37 17.4536 149.692 18.7818 149.692 20.2865ZM145.698 19.1719C145.68 18.1688 145.322 17.37 144.624 16.7756C143.926 16.1626 143.072 15.8561 142.063 15.8561C141.108 15.8561 140.3 16.1533 139.639 16.7477C138.996 17.3236 138.602 18.1316 138.455 19.1719H145.698Z" fill="#36D399"/>
<path d="M149.692 20.2865C149.692 20.8437 149.655 21.3453 149.581 21.7911H138.427C138.519 22.9057 138.904 23.7788 139.584 24.4104C140.263 25.0419 141.099 25.3577 142.09 25.3577C143.522 25.3577 144.541 24.7354 145.147 23.4908H149.306C148.865 24.9769 148.021 26.2029 146.772 27.1689C145.524 28.1163 143.99 28.59 142.173 28.59C140.704 28.59 139.382 28.2649 138.207 27.6147C137.05 26.946 136.141 26.0079 135.48 24.8005C134.838 23.593 134.516 22.1998 134.516 20.6208C134.516 19.0233 134.838 17.6208 135.48 16.4133C136.123 15.2059 137.022 14.2771 138.179 13.6269C139.336 12.9768 140.667 12.6517 142.173 12.6517C143.623 12.6517 144.918 12.9675 146.056 13.5991C147.213 14.2306 148.103 15.1316 148.728 16.3019C149.37 17.4536 149.692 18.7818 149.692 20.2865ZM145.698 19.1719C145.68 18.1688 145.322 17.37 144.624 16.7756C143.926 16.1626 143.072 15.8561 142.063 15.8561C141.108 15.8561 140.3 16.1533 139.639 16.7477C138.996 17.3236 138.602 18.1316 138.455 19.1719H145.698Z" fill="black"/>
<path d="M159.226 8.89002C161.246 8.89002 163.018 9.28941 164.542 10.0882C166.084 10.887 167.268 12.0294 168.094 13.5155C168.939 14.983 169.361 16.692 169.361 18.6425C169.361 20.593 168.939 22.302 168.094 23.7695C167.268 25.2184 166.084 26.3423 164.542 27.141C163.018 27.9398 161.246 28.3392 159.226 28.3392H152.506V8.89002H159.226ZM159.088 25.0234C161.108 25.0234 162.669 24.4661 163.77 23.3515C164.872 22.2369 165.423 20.6673 165.423 18.6425C165.423 16.6177 164.872 15.0387 163.77 13.9056C162.669 12.7538 161.108 12.178 159.088 12.178H156.362V25.0234H159.088Z" fill="#36D399"/>
<path d="M159.226 8.89002C161.246 8.89002 163.018 9.28941 164.542 10.0882C166.084 10.887 167.268 12.0294 168.094 13.5155C168.939 14.983 169.361 16.692 169.361 18.6425C169.361 20.593 168.939 22.302 168.094 23.7695C167.268 25.2184 166.084 26.3423 164.542 27.141C163.018 27.9398 161.246 28.3392 159.226 28.3392H152.506V8.89002H159.226ZM159.088 25.0234C161.108 25.0234 162.669 24.4661 163.77 23.3515C164.872 22.2369 165.423 20.6673 165.423 18.6425C165.423 16.6177 164.872 15.0387 163.77 13.9056C162.669 12.7538 161.108 12.178 159.088 12.178H156.362V25.0234H159.088Z" fill="black"/>
<path d="M186.431 20.2865C186.431 20.8437 186.395 21.3453 186.321 21.7911H175.167C175.259 22.9057 175.644 23.7788 176.324 24.4104C177.003 25.0419 177.838 25.3577 178.83 25.3577C180.262 25.3577 181.281 24.7354 181.887 23.4908H186.046C185.605 24.9769 184.761 26.2029 183.512 27.1689C182.263 28.1163 180.73 28.59 178.913 28.59C177.444 28.59 176.122 28.2649 174.947 27.6147C173.79 26.946 172.881 26.0079 172.22 24.8005C171.577 23.593 171.256 22.1998 171.256 20.6208C171.256 19.0233 171.577 17.6208 172.22 16.4133C172.863 15.2059 173.762 14.2771 174.919 13.6269C176.076 12.9768 177.407 12.6517 178.913 12.6517C180.363 12.6517 181.658 12.9675 182.796 13.5991C183.953 14.2306 184.843 15.1316 185.467 16.3019C186.11 17.4536 186.431 18.7818 186.431 20.2865ZM182.438 19.1719C182.419 18.1688 182.061 17.37 181.364 16.7756C180.666 16.1626 179.812 15.8561 178.802 15.8561C177.848 15.8561 177.04 16.1533 176.379 16.7477C175.736 17.3236 175.341 18.1316 175.194 19.1719H182.438Z" fill="#36D399"/>
<path d="M186.431 20.2865C186.431 20.8437 186.395 21.3453 186.321 21.7911H175.167C175.259 22.9057 175.644 23.7788 176.324 24.4104C177.003 25.0419 177.838 25.3577 178.83 25.3577C180.262 25.3577 181.281 24.7354 181.887 23.4908H186.046C185.605 24.9769 184.761 26.2029 183.512 27.1689C182.263 28.1163 180.73 28.59 178.913 28.59C177.444 28.59 176.122 28.2649 174.947 27.6147C173.79 26.946 172.881 26.0079 172.22 24.8005C171.577 23.593 171.256 22.1998 171.256 20.6208C171.256 19.0233 171.577 17.6208 172.22 16.4133C172.863 15.2059 173.762 14.2771 174.919 13.6269C176.076 12.9768 177.407 12.6517 178.913 12.6517C180.363 12.6517 181.658 12.9675 182.796 13.5991C183.953 14.2306 184.843 15.1316 185.467 16.3019C186.11 17.4536 186.431 18.7818 186.431 20.2865ZM182.438 19.1719C182.419 18.1688 182.061 17.37 181.364 16.7756C180.666 16.1626 179.812 15.8561 178.802 15.8561C177.848 15.8561 177.04 16.1533 176.379 16.7477C175.736 17.3236 175.341 18.1316 175.194 19.1719H182.438Z" fill="black"/>
<path d="M197.701 12.6795C199.519 12.6795 200.988 13.2647 202.108 14.435C203.228 15.5867 203.788 17.2028 203.788 19.2833V28.3392H199.932V19.8128C199.932 18.5867 199.629 17.6487 199.023 16.9985C198.417 16.3297 197.591 15.9954 196.544 15.9954C195.479 15.9954 194.635 16.3297 194.01 16.9985C193.404 17.6487 193.102 18.5867 193.102 19.8128V28.3392H189.246V12.9025H193.102V14.8251C193.616 14.1563 194.267 13.6362 195.057 13.2647C195.865 12.8746 196.746 12.6795 197.701 12.6795Z" fill="#36D399"/>
<path d="M197.701 12.6795C199.519 12.6795 200.988 13.2647 202.108 14.435C203.228 15.5867 203.788 17.2028 203.788 19.2833V28.3392H199.932V19.8128C199.932 18.5867 199.629 17.6487 199.023 16.9985C198.417 16.3297 197.591 15.9954 196.544 15.9954C195.479 15.9954 194.635 16.3297 194.01 16.9985C193.404 17.6487 193.102 18.5867 193.102 19.8128V28.3392H189.246V12.9025H193.102V14.8251C193.616 14.1563 194.267 13.6362 195.057 13.2647C195.865 12.8746 196.746 12.6795 197.701 12.6795Z" fill="black"/>
</svg>
