<svg width="40" height="30" viewBox="0 0 101 97" fill="none" xmlns="http://www.w3.org/2000/svg">
<path d="M99.4064 36.375C98.2506 32.0742 96.4994 28.0016 94.2404 24.25C92.5593 21.4532 90.5892 18.8254 88.3739 16.4173C86.9817 14.8964 85.4844 13.46 83.8996 12.125C81.3867 9.99573 78.6636 8.10305 75.7478 6.4892C71.8427 4.31768 67.6048 2.63624 63.1217 1.52936C59.0852 0.532317 54.8561 0 50.4956 0C46.1352 0 41.906 0.532317 37.8695 1.52936C33.3952 2.63624 29.1573 4.31768 25.2434 6.4892C22.3277 8.1115 19.5958 9.99573 17.0916 12.125C15.5068 13.4685 14.0183 14.8964 12.6173 16.4173C10.4021 18.8254 8.43199 21.4448 6.75085 24.25C4.49181 28.0016 2.74062 32.0742 1.58483 36.375C0.551625 40.2533 0 44.3091 0 48.5V84.7567C0 91.5163 5.70889 97 12.7487 97H50.4956C54.8561 97 59.0852 96.4677 63.1217 95.4706C67.596 94.3638 71.8339 92.6823 75.7478 90.5108C78.6636 88.8885 81.3954 87.0043 83.8996 84.875C85.4844 83.5315 86.973 82.1036 88.3739 80.5827C90.5892 78.1746 92.5593 75.5552 94.2404 72.75C96.4994 68.9984 98.2506 64.9258 99.4064 60.625C100.448 56.7467 101 52.6909 101 48.5C101 44.3091 100.44 40.2533 99.4064 36.375ZM70.538 55.2258H44.489C42.1074 55.2258 40.1723 53.3584 40.1723 51.0602C40.1723 48.7619 42.1074 46.8946 44.489 46.8946H69.5486C70.0652 46.8946 70.538 46.7003 70.8883 46.3369C71.2385 45.9821 71.4224 45.5004 71.4049 45.0019C71.2385 41.6813 70.2403 38.4113 68.5241 35.5469C66.6153 32.3615 63.866 29.7084 60.565 27.8664C57.2727 26.0328 53.5164 25.0611 49.6988 25.0611C45.8812 25.0611 42.1249 26.0328 38.8327 27.8664C35.5317 29.7084 32.7823 32.3615 30.8735 35.5469C28.9735 38.724 27.9665 42.3488 27.9665 46.0327C27.9665 49.7167 28.9735 53.3415 30.8735 56.5186C32.7823 59.704 35.5317 62.3571 38.8327 64.1991C42.1249 66.0327 45.8812 67.0044 49.6988 67.0044H71.4837C73.8653 67.0044 75.8003 68.8717 75.8003 71.1699C75.8003 73.4682 73.8653 75.3355 71.4837 75.3355H49.6988C46.2227 75.3355 42.8166 74.7779 39.5769 73.671C35.8294 72.3951 32.4233 70.4433 29.455 67.8746C28.6145 67.1564 27.8177 66.3791 27.0647 65.5679C24.4029 62.6951 22.3802 59.4083 21.0581 55.8003C19.9111 52.674 19.3332 49.3872 19.3332 46.0327C19.3332 42.6783 19.9111 39.3915 21.0581 36.2652C22.3802 32.6488 24.4029 29.3619 27.0647 26.4976C27.8089 25.6864 28.6145 24.9175 29.455 24.1909C32.4321 21.6222 35.8381 19.6704 39.5769 18.3945C42.8166 17.2876 46.2227 16.73 49.6988 16.73C53.1749 16.73 56.581 17.2876 59.8207 18.3945C63.5683 19.6704 66.9743 21.6222 69.9426 24.1909C70.7832 24.9091 71.58 25.6864 72.333 26.4976C74.9948 29.3704 77.0174 32.6572 78.3396 36.2652C79.4866 39.3915 80.0645 42.6783 80.0645 46.0327C80.0645 51.1024 75.7916 55.2258 70.538 55.2258Z" fill="#EB3A66"/>
</svg>
