<svg width="20" height="21" viewBox="0 0 20 21" fill="none" xmlns="http://www.w3.org/2000/svg">
<path d="M13.75 5.5V6.125M13.75 8.625V9.25M13.75 11.75V12.375M13.75 14.875V15.5M6.25 11.125H10.625M6.25 13H8.75M2.8125 4.875C2.295 4.875 1.875 5.295 1.875 5.8125V8.33417C2.25562 8.55331 2.57177 8.8689 2.7916 9.24912C3.01143 9.62935 3.12717 10.0608 3.12717 10.5C3.12717 10.9392 3.01143 11.3706 2.7916 11.7509C2.57177 12.1311 2.25562 12.4467 1.875 12.6658V15.1875C1.875 15.705 2.295 16.125 2.8125 16.125H17.1875C17.705 16.125 18.125 15.705 18.125 15.1875V12.6658C17.7444 12.4467 17.4282 12.1311 17.2084 11.7509C16.9886 11.3706 16.8728 10.9392 16.8728 10.5C16.8728 10.0608 16.9886 9.62935 17.2084 9.24912C17.4282 8.8689 17.7444 8.55331 18.125 8.33417V5.8125C18.125 5.295 17.705 4.875 17.1875 4.875H2.8125Z" stroke="#FC6896" stroke-width="1.5" stroke-linecap="round" stroke-linejoin="round"/>
</svg>
