<svg width="484" height="92" viewBox="0 0 484 92" fill="none" xmlns="http://www.w3.org/2000/svg">
<path d="M328.84 92C326.744 92 324.727 91.7493 322.842 91.2742L323.093 90.2713C324.899 90.7332 326.836 90.9707 328.84 90.9707C328.84 90.9707 328.84 90.9707 328.853 90.9707H329.103L329.116 92H328.84ZM335.351 91.261L335.127 90.2581C337.09 89.8226 339.054 89.2024 340.926 88.3974L341.335 89.3475C339.397 90.1657 337.38 90.8123 335.351 91.261ZM317.017 88.7801C315.25 87.6584 313.656 86.2464 312.298 84.5704L313.102 83.9106C314.394 85.4942 315.909 86.8402 317.583 87.9091L317.017 88.7801ZM346.857 86.352L346.277 85.4942C347.806 84.4517 349.441 83.198 351.154 81.7596L351.813 82.5514C350.073 84.003 348.399 85.2831 346.857 86.352ZM80.4009 84.1218V83.0925C82.4438 83.0793 84.5264 83.0397 86.5693 82.9473L86.6089 83.9766C84.5395 84.069 82.457 84.1218 80.4009 84.1218ZM74.1797 84.0162C72.1103 83.937 70.0147 83.8183 67.9717 83.6599L68.0508 82.6306C70.0806 82.7889 72.1499 82.9077 74.206 82.9869L74.1797 84.0162ZM92.8037 83.5807L92.7114 82.5514C94.7544 82.3799 96.8237 82.1687 98.8535 81.918L98.9853 82.9473C96.9424 83.198 94.8598 83.4092 92.8037 83.5807ZM61.8032 83.0397C59.7471 82.7889 57.6777 82.4854 55.6479 82.1555L55.8193 81.1394C57.8227 81.4693 59.8789 81.7728 61.9218 82.0236L61.8032 83.0397ZM105.167 82.05L104.982 81.0338C106.999 80.7039 109.042 80.3212 111.045 79.9253L111.243 80.9415C109.227 81.3373 107.184 81.7068 105.167 82.05ZM49.5454 80.981C47.5156 80.5456 45.4858 80.0573 43.4955 79.5294L43.7592 78.5265C45.723 79.0544 47.7397 79.5294 49.7563 79.9649L49.5454 80.981ZM117.319 79.5954L117.082 78.5925C119.072 78.1174 121.076 77.616 123.066 77.0749L123.343 78.0779C121.339 78.6189 119.31 79.1336 117.319 79.5954ZM309.016 79.1731C308.199 77.3652 307.54 75.3594 307.026 73.2216L308.028 72.9841C308.528 75.0691 309.174 77.0089 309.965 78.7641L309.016 79.1731ZM356.453 78.3814L355.741 77.6292C357.138 76.3095 358.614 74.8447 360.13 73.2744L360.868 74.0002C359.339 75.5705 357.85 77.0485 356.453 78.3814ZM37.538 77.7875C35.5477 77.1541 33.5707 76.4547 31.6727 75.7289L32.0417 74.7655C33.9265 75.4782 35.8904 76.1644 37.8543 76.7978L37.538 77.7875ZM129.3 76.3623L128.997 75.3726C130.948 74.7787 132.925 74.1453 134.876 73.4855L135.205 74.4621C133.241 75.1219 131.264 75.7553 129.3 76.3623ZM25.926 73.3535C24.028 72.509 22.1432 71.5984 20.3243 70.6483L20.7988 69.7377C22.6045 70.6747 24.463 71.572 26.3478 72.4166L25.926 73.3535ZM141.057 72.3902L140.702 71.4269C142.639 70.7143 144.55 69.9753 146.461 69.2099L146.844 70.1732C144.932 70.9254 143.008 71.6644 141.057 72.3902ZM365.125 69.487L364.361 68.7876C365.758 67.27 367.142 65.7393 368.5 64.1821L369.277 64.8683C367.92 66.4255 366.522 67.9694 365.125 69.487ZM152.59 67.7715L152.182 66.8214C154.08 66.0032 155.951 65.1718 157.823 64.3008L158.258 65.2378C156.373 66.1087 154.488 66.9533 152.59 67.7715ZM14.8939 67.5999C13.1146 66.5178 11.3484 65.3829 9.67446 64.2085L10.2676 63.3639C11.9283 64.5252 13.6681 65.6469 15.4343 66.7158L14.8939 67.5999ZM305.853 67.0985C305.523 65.119 305.194 63.0604 304.877 60.9622L305.892 60.8038C306.222 62.902 306.538 64.9475 306.868 66.9269L305.853 67.0985ZM163.86 62.5853L163.411 61.6616C165.27 60.7642 167.102 59.8273 168.934 58.8903L169.409 59.8141C167.563 60.751 165.718 61.688 163.86 62.5853ZM4.69225 60.4739C3.07105 59.1543 1.50257 57.7819 0 56.3698L0.711745 55.6176C2.18796 57.0033 3.75643 58.3625 5.35127 59.6557L4.69225 60.4739ZM373.363 60.1836L372.586 59.5106C373.956 57.9138 375.301 56.3302 376.606 54.7995L377.396 55.4725C376.078 57.0165 374.734 58.5868 373.363 60.1836ZM174.892 56.9109L174.404 56.0003C176.223 55.0238 178.029 54.0209 179.821 53.0048L180.322 53.9021C178.529 54.9314 176.711 55.9344 174.892 56.9109ZM303.902 54.8391C303.573 52.8068 303.217 50.7746 302.834 48.7423L303.849 48.5444C304.245 50.5766 304.601 52.6353 304.93 54.6675L303.902 54.8391ZM185.7 50.8142L185.172 49.93C186.952 48.8875 188.718 47.8186 190.484 46.7497L191.025 47.6338C189.258 48.7028 187.479 49.7585 185.7 50.8142ZM381.403 50.735L380.612 50.062C382.036 48.386 383.38 46.8025 384.646 45.3509L385.423 46.0239C384.171 47.4887 382.814 49.0722 381.403 50.735ZM196.297 44.3611L195.743 43.4902C197.496 42.3949 199.223 41.2732 200.949 40.1515L201.516 41.0225C199.79 42.131 198.05 43.2526 196.297 44.3611ZM301.53 42.7116C301.002 40.5474 300.475 38.6075 299.882 36.7732L300.871 36.4565C301.464 38.3172 302.004 40.2835 302.531 42.4741L301.53 42.7116ZM389.522 41.3788L388.745 40.6926L392.857 36.0474L393.635 36.7337L389.522 41.3788ZM206.696 37.5914L206.116 36.7337L206.551 36.4433C207.803 35.5988 209.069 34.7542 210.321 33.9096L211.257 33.2762L211.837 34.134L210.901 34.7674C209.635 35.612 208.383 36.4697 207.131 37.3011L206.696 37.5914ZM397.747 32.1017L396.969 31.4155L401.082 26.7704L401.859 27.4566L397.747 32.1017ZM297.72 31.0328C297.088 29.634 296.416 28.3276 295.704 27.1399C295.414 26.6516 295.098 26.1766 294.768 25.7015L295.612 25.1077C295.954 25.5959 296.271 26.0974 296.587 26.5988C297.312 27.8261 298.01 29.1721 298.656 30.5973L297.72 31.0328ZM216.977 30.7029L216.41 29.8451C218.137 28.7103 219.863 27.5754 221.616 26.4801L222.17 27.351C220.43 28.4331 218.704 29.5548 216.977 30.7029ZM227.455 24.1311L226.941 23.2338C228.826 22.1385 230.619 21.1488 232.385 20.225L232.859 21.1488C231.093 22.0593 229.327 23.0358 227.455 24.1311ZM405.958 22.8247L405.181 22.1385L409.293 17.4934L410.071 18.1796L405.958 22.8247ZM290.708 21.2147C289.232 19.9215 287.558 18.7602 285.726 17.7309L286.227 16.8335C288.112 17.8893 289.852 19.1033 291.381 20.4361L290.708 21.2147ZM238.395 18.4699L237.973 17.5198C239.911 16.662 241.862 15.8834 243.76 15.1972L244.102 16.1737C242.231 16.8467 240.319 17.6253 238.395 18.4699ZM280.177 15.2104C278.319 14.5374 276.329 13.9831 274.286 13.5608L274.496 12.5447C276.592 12.9802 278.622 13.5477 280.52 14.2207L280.177 15.2104ZM249.981 14.3526L249.717 13.3497C250.165 13.2309 250.6 13.1254 251.048 13.0066C252.604 12.6239 254.212 12.3204 255.833 12.0829L255.978 13.099C254.396 13.3365 252.815 13.64 251.286 14.0095C250.851 14.1283 250.416 14.2339 249.981 14.3526ZM414.17 13.5476L413.392 12.8614L417.505 8.21632L418.282 8.90253L414.17 13.5476ZM268.223 12.7031C266.206 12.5447 264.137 12.4919 262.094 12.5579L262.054 11.5286C264.137 11.4626 266.245 11.5022 268.302 11.6738L268.223 12.7031ZM422.395 4.27061L421.617 3.5844L425.729 -1.06072L426.507 -0.374512L422.395 4.27061ZM430.606 -5.00643L429.828 -5.69264L433.941 -10.3378L434.718 -9.65155L430.606 -5.00643ZM438.817 -14.2835L438.04 -14.9697L442.152 -19.6148L442.93 -18.9286L438.817 -14.2835ZM447.029 -23.5605L446.251 -24.2467L450.363 -28.8918L451.141 -28.2056L447.029 -23.5605ZM455.253 -32.8376L454.476 -33.5238L458.588 -38.1689L459.366 -37.4827L455.253 -32.8376ZM463.465 -42.1146L462.687 -42.8008L466.799 -47.4459L467.577 -46.7597L463.465 -42.1146ZM471.689 -51.3916L470.912 -52.0778L475.024 -56.723L475.802 -56.0367L471.689 -51.3916ZM479.901 -60.6687L479.123 -61.3549L483.236 -66L484.013 -65.3138L479.901 -60.6687Z" fill="white"/>
</svg>
