<svg width="24" height="24" viewBox="0 0 24 24" fill="none" xmlns="http://www.w3.org/2000/svg">
<rect width="24" height="24" rx="12" fill="url(#paint0_linear_1273_10968)"/>
<path d="M18.4805 12.5011C18.5708 11.3531 18.3534 10.2017 17.8505 9.16576C17.018 9.95668 16.034 10.5708 14.9578 10.9711C15.0443 12.0333 14.9964 13.1022 14.8151 14.1524C16.1248 13.8226 17.3657 13.2635 18.4805 12.5011ZM13.7558 14.3664C13.9687 13.3484 14.0432 12.3063 13.9771 11.2684C13.3425 11.4198 12.6805 11.4998 11.9998 11.4998C11.3191 11.4998 10.6571 11.4198 10.0225 11.2684C9.95796 12.3063 10.0324 13.3482 10.2438 14.3664C11.4077 14.5448 12.5919 14.5448 13.7558 14.3664ZM10.5145 15.4124C11.5012 15.5292 12.4984 15.5292 13.4851 15.4124C13.146 16.5041 12.6453 17.5389 11.9998 18.4824C11.3542 17.539 10.8536 16.5041 10.5145 15.4124ZM9.18447 14.1531C9.00223 13.1025 8.95429 12.0331 9.0418 10.9704C7.96532 10.5702 6.98108 9.95611 6.14847 9.16509C5.64568 10.2013 5.42843 11.3529 5.51913 12.5011C6.63389 13.2635 7.87481 13.8232 9.18447 14.1531ZM18.2371 13.8344C17.9005 14.975 17.2579 16.0017 16.379 16.8029C15.5002 17.6041 14.4186 18.1492 13.2518 18.3791C13.8361 17.3966 14.2821 16.3382 14.5771 15.2338C15.8635 14.9642 17.0988 14.4921 18.2371 13.8351V13.8344ZM5.76247 13.8344C6.8838 14.4818 8.1158 14.9598 9.42247 15.2338C9.71747 16.3382 10.1635 17.3966 10.7478 18.3791C9.58106 18.1492 8.49956 17.6042 7.62069 16.8031C6.74183 16.0021 6.09917 14.9756 5.76247 13.8351V13.8344ZM13.2518 5.61976C14.9036 5.94443 16.3652 6.89698 17.3291 8.27709C16.6176 8.99601 15.7682 9.56381 14.8318 9.94642C14.5795 8.4183 14.0436 6.95085 13.2518 5.61976ZM11.9998 5.51709C12.9727 6.93849 13.612 8.56133 13.8698 10.2644C13.2718 10.4178 12.6451 10.4998 11.9998 10.4998C11.3545 10.4998 10.7278 10.4184 10.1298 10.2644C10.3876 8.56132 11.0268 6.93848 11.9998 5.51709ZM10.7478 5.61976C9.95595 6.95084 9.42007 8.4183 9.1678 9.94642C8.23144 9.56382 7.38201 8.99602 6.67047 8.27709C7.63449 6.89718 9.09606 5.9442 10.7478 5.61976Z" fill="white"/>
<defs>
<linearGradient id="paint0_linear_1273_10968" x1="8.52554" y1="16.249" x2="19.8989" y2="4.39869" gradientUnits="userSpaceOnUse">
<stop stop-color="#6FC1FD"/>
<stop offset="1" stop-color="#3FB9FD"/>
</linearGradient>
</defs>
</svg>
