<svg width="32" height="32" viewBox="0 0 32 32" fill="none" xmlns="http://www.w3.org/2000/svg">
<path d="M23.715 11.5219C26.0497 12.9944 28.91 13.8609 31.9991 13.8609V8.61617C31.4144 8.61637 30.8313 8.56253 30.2593 8.45551V12.5838C27.1705 12.5838 24.3106 11.7175 21.9753 10.2451V20.9481C21.9753 26.3023 17.0558 30.6424 10.9878 30.6424C8.72372 30.6424 6.61922 30.0385 4.87109 29.0027C6.86634 30.8028 9.64884 31.9193 12.7271 31.9193C18.7956 31.9193 23.7152 27.5793 23.7152 22.2248V11.5219H23.715ZM25.8612 6.23063C24.668 5.0805 23.8845 3.59416 23.715 1.95091V1.27637H22.0663C22.4813 3.36486 23.897 5.14914 25.8612 6.23063ZM8.70909 24.8941C8.04239 24.123 7.68203 23.1795 7.68372 22.2094C7.68372 19.7607 9.93384 17.7751 12.71 17.7751C13.2272 17.7749 13.7415 17.845 14.2346 17.9829V12.6209C13.6583 12.5513 13.0768 12.5216 12.4956 12.5325V16.706C12.0022 16.568 11.4877 16.498 10.9702 16.4983C8.19422 16.4983 5.94422 18.4836 5.94422 20.9328C5.94422 22.6645 7.06884 24.1638 8.70909 24.8941Z" fill="#FF004F"/>
<path d="M21.9755 10.245C24.3109 11.7174 27.1705 12.5837 30.2595 12.5837V8.4554C28.5352 8.13132 27.0089 7.3364 25.8612 6.23063C23.8969 5.14903 22.4815 3.36475 22.0665 1.27637H17.7361V22.2246C17.7262 24.6667 15.48 26.6441 12.7099 26.6441C11.0776 26.6441 9.62737 25.9576 8.709 24.894C7.069 24.1638 5.94425 22.6644 5.94425 20.9329C5.94425 18.484 8.19425 16.4984 10.9702 16.4984C11.5021 16.4984 12.0147 16.5715 12.4956 16.7061V12.5326C6.53412 12.6413 1.73975 16.939 1.73975 22.2247C1.73975 24.8632 2.93362 27.2552 4.87137 29.0029C6.6195 30.0385 8.72387 30.6427 10.9881 30.6427C17.0562 30.6427 21.9756 26.3022 21.9756 20.9481L21.9755 10.245Z" fill="black"/>
<path d="M30.2594 8.45572V7.3397C28.7045 7.34169 27.1804 6.95751 25.8611 6.23106C27.0289 7.35902 28.5665 8.13686 30.2594 8.45594M22.0662 1.27669C22.0267 1.07714 21.9964 0.876257 21.9752 0.674538V0H15.996V20.9484C15.9865 23.3903 13.7402 25.3677 10.97 25.3677C10.1847 25.3688 9.41005 25.2067 8.70875 24.8947C9.62712 25.9581 11.0774 26.6444 12.7096 26.6444C15.4796 26.6444 17.7261 24.6673 17.7359 22.2251V1.2768L22.0662 1.27669ZM12.4957 12.533V11.3447C11.9961 11.2844 11.4924 11.2543 10.9881 11.2544C4.91937 11.2544 0 15.5947 0 20.9484C0 24.305 1.93338 27.2631 4.87137 29.0031C2.93362 27.2555 1.73975 24.8634 1.73975 22.225C1.73975 16.9395 6.534 12.6417 12.4957 12.533Z" fill="#00F2EA"/>
</svg>
